<svg width="2388" height="1042" viewBox="0 0 2388 1042" fill="none" xmlns="http://www.w3.org/2000/svg">
<path d="M21.6 14.8H26.4V19.6H16.8V14.8H12V29.2H16.8V24.4H26.4V29.2H21.6V34H7.2V29.2H2.4V14.8H7.2V10H21.6V14.8ZM40.7812 29.2H45.5813V34H35.9813V29.2H31.1813V0.399998H40.7812V29.2ZM62.3625 14.8H57.5625V29.2H62.3625V14.8ZM52.7625 10H67.1625V14.8H71.9625V34H52.7625V29.2H47.9625V14.8H52.7625V10ZM79.1438 10H93.5438V14.8H83.9438V19.6H93.5438V24.4H98.3438V29.2H93.5438V34H74.3438V29.2H88.7438V24.4H79.1438V19.6H74.3438V14.8H79.1438V10ZM103.144 10H117.544V14.8H107.944V19.6H117.544V24.4H122.344V29.2H117.544V34H98.3438V29.2H112.744V24.4H103.144V19.6H98.3438V14.8H103.144V10ZM108 88.2H112.8V69H122.4V83.4H117.6V93H103.2V83.4H98.4V69H108V88.2ZM141.581 73.8H136.781V88.2H141.581V73.8ZM131.981 69H146.381V73.8H151.181V93H131.981V88.2H127.181V73.8H131.981V69ZM165.562 88.2H170.363V93H160.763V88.2H155.963V59.4H165.562V88.2ZM108 147.2H112.8V128H122.4V142.4H117.6V152H103.2V142.4H98.4V128H108V147.2ZM141.581 132.8H136.781V147.2H141.581V132.8ZM131.981 128H146.381V132.8H151.181V152H131.981V147.2H127.181V132.8H131.981V128ZM165.562 147.2H170.363V152H160.763V147.2H155.963V118.4H165.562V147.2ZM108 206.2H112.8V187H122.4V201.4H117.6V211H103.2V201.4H98.4V187H108V206.2ZM141.581 191.8H136.781V206.2H141.581V191.8ZM131.981 187H146.381V191.8H151.181V211H131.981V206.2H127.181V191.8H131.981V187ZM165.562 206.2H170.363V211H160.763V206.2H155.963V177.4H165.562V206.2ZM108 265.2H112.8V246H122.4V260.4H117.6V270H103.2V260.4H98.4V246H108V265.2ZM141.581 250.8H136.781V265.2H141.581V250.8ZM131.981 246H146.381V250.8H151.181V270H131.981V265.2H127.181V250.8H131.981V246ZM165.562 265.2H170.363V270H160.763V265.2H155.963V236.4H165.562V265.2ZM108 324.2H112.8V305H122.4V319.4H117.6V329H103.2V319.4H98.4V305H108V324.2ZM141.581 309.8H136.781V324.2H141.581V309.8ZM131.981 305H146.381V309.8H151.181V329H131.981V324.2H127.181V309.8H131.981V305ZM165.562 324.2H170.363V329H160.763V324.2H155.963V295.4H165.562V324.2ZM108 383.2H112.8V364H122.4V378.4H117.6V388H103.2V378.4H98.4V364H108V383.2ZM141.581 368.8H136.781V383.2H141.581V368.8ZM131.981 364H146.381V368.8H151.181V388H131.981V383.2H127.181V368.8H131.981V364ZM165.562 383.2H170.363V388H160.763V383.2H155.963V354.4H165.562V383.2ZM108 442.2H112.8V423H122.4V437.4H117.6V447H103.2V437.4H98.4V423H108V442.2ZM141.581 427.8H136.781V442.2H141.581V427.8ZM131.981 423H146.381V427.8H151.181V447H131.981V442.2H127.181V427.8H131.981V423ZM165.562 442.2H170.363V447H160.763V442.2H155.963V413.4H165.562V442.2ZM108 501.2H112.8V482H122.4V496.4H117.6V506H103.2V496.4H98.4V482H108V501.2ZM141.581 486.8H136.781V501.2H141.581V486.8ZM131.981 482H146.381V486.8H151.181V506H131.981V501.2H127.181V486.8H131.981V482ZM165.562 501.2H170.363V506H160.763V501.2H155.963V472.4H165.562V501.2ZM108 560.2H112.8V541H122.4V555.4H117.6V565H103.2V555.4H98.4V541H108V560.2ZM141.581 545.8H136.781V560.2H141.581V545.8ZM131.981 541H146.381V545.8H151.181V565H131.981V560.2H127.181V545.8H131.981V541ZM165.562 560.2H170.363V565H160.763V560.2H155.963V531.4H165.562V560.2ZM108 619.2H112.8V600H122.4V614.4H117.6V624H103.2V614.4H98.4V600H108V619.2ZM141.581 604.8H136.781V619.2H141.581V604.8ZM131.981 600H146.381V604.8H151.181V624H131.981V619.2H127.181V604.8H131.981V600ZM165.562 619.2H170.363V624H160.763V619.2H155.963V590.4H165.562V619.2ZM108 678.2H112.8V659H122.4V673.4H117.6V683H103.2V673.4H98.4V659H108V678.2ZM141.581 663.8H136.781V678.2H141.581V663.8ZM131.981 659H146.381V663.8H151.181V683H131.981V678.2H127.181V663.8H131.981V659ZM165.562 678.2H170.363V683H160.763V678.2H155.963V649.4H165.562V678.2ZM108 737.2H112.8V718H122.4V732.4H117.6V742H103.2V732.4H98.4V718H108V737.2ZM141.581 722.8H136.781V737.2H141.581V722.8ZM131.981 718H146.381V722.8H151.181V742H131.981V737.2H127.181V722.8H131.981V718ZM165.562 737.2H170.363V742H160.763V737.2H155.963V708.4H165.562V737.2ZM108 796.2H112.8V777H122.4V791.4H117.6V801H103.2V791.4H98.4V777H108V796.2ZM141.581 781.8H136.781V796.2H141.581V781.8ZM131.981 777H146.381V781.8H151.181V801H131.981V796.2H127.181V781.8H131.981V777ZM165.562 796.2H170.363V801H160.763V796.2H155.963V767.4H165.562V796.2ZM108 855.2H112.8V836H122.4V850.4H117.6V860H103.2V850.4H98.4V836H108V855.2ZM141.581 840.8H136.781V855.2H141.581V840.8ZM131.981 836H146.381V840.8H151.181V860H131.981V855.2H127.181V840.8H131.981V836ZM165.562 855.2H170.363V860H160.763V855.2H155.963V826.4H165.562V855.2ZM108 914.2H112.8V895H122.4V909.4H117.6V919H103.2V909.4H98.4V895H108V914.2ZM141.581 899.8H136.781V914.2H141.581V899.8ZM131.981 895H146.381V899.8H151.181V919H131.981V914.2H127.181V899.8H131.981V895ZM165.562 914.2H170.363V919H160.763V914.2H155.963V885.4H165.562V914.2ZM108 973.2H112.8V954H122.4V968.4H117.6V978H103.2V968.4H98.4V954H108V973.2ZM141.581 958.8H136.781V973.2H141.581V958.8ZM131.981 954H146.381V958.8H151.181V978H131.981V973.2H127.181V958.8H131.981V954ZM165.562 973.2H170.363V978H160.763V973.2H155.963V944.4H165.562V973.2Z" fill="#F6AE8A"/>
<path d="M177.544 0.399998H182.344V34H172.744V19.6H167.944V24.4H163.144V19.6H158.344V34H148.744V0.399998H153.544V5.2H158.344V10H163.144V14.8H167.944V10H172.744V5.2H177.544V0.399998ZM201.534 10H211.134V38.8H206.334V43.6H196.734V38.8H201.534V34H191.934V29.2H187.134V10H196.734V29.2H201.534V10ZM235.116 5.2H239.916V10H230.316V5.2H225.516V14.8H235.116V19.6H239.916V29.2H235.116V34H220.716V29.2H215.916V24.4H225.516V29.2H230.316V19.6H220.716V14.8H215.916V5.2H220.716V0.399998H235.116V5.2ZM259.097 10H268.697V19.6H263.897V24.4H268.697V34H259.097V24.4H254.297V34H244.697V0.399998H254.297V19.6H259.097V10ZM273.478 10H283.078V34H273.478V10ZM273.478 0.399998H283.078V5.2H273.478V0.399998ZM297.469 29.2H302.269V34H292.669V29.2H287.869V0.399998H297.469V29.2ZM314.25 29.2H319.05V34H309.45V29.2H304.65V0.399998H314.25V29.2ZM323.831 10H338.231V14.8H328.631V19.6H338.231V24.4H343.031V29.2H338.231V34H319.031V29.2H333.431V24.4H323.831V19.6H319.031V14.8H323.831V10ZM376.631 0.399998H386.231V5.2H381.431V14.8H376.631V19.6H381.431V34H386.231V38.8H376.631V34H371.831V19.6H367.031V14.8H371.831V5.2H376.631V0.399998ZM206.344 88.2H211.144V93H201.544V88.2H196.744V59.4H206.344V88.2ZM227.925 73.8H223.125V88.2H227.925V73.8ZM218.325 69H232.725V73.8H237.525V93H218.325V88.2H213.525V73.8H218.325V69ZM261.506 69V73.8H266.306V93H256.706V73.8H251.906V93H242.306V69H261.506ZM285.488 88.2V73.8H280.688V88.2H285.488ZM295.088 97.8H290.288V102.6H280.688V97.8H285.488V93H275.888V88.2H271.088V73.8H275.888V69H295.088V97.8ZM314.269 69H323.869V93H304.669V88.2H299.869V69H309.469V88.2H314.269V69ZM343.05 73.8H338.25V88.2H343.05V73.8ZM333.45 69H347.85V73.8H352.65V93H333.45V88.2H328.65V73.8H333.45V69ZM371.831 88.2V73.8H367.031V88.2H371.831ZM381.431 97.8H376.631V102.6H367.031V97.8H371.831V93H362.231V88.2H357.431V73.8H362.231V69H381.431V97.8ZM400.613 78.6V73.8H395.812V78.6H400.613ZM405.413 73.8H410.213V83.4H395.812V88.2H410.213V93H391.013V88.2H386.213V73.8H391.013V69H405.413V73.8ZM417.394 69H431.794V73.8H422.194V78.6H431.794V83.4H436.594V88.2H431.794V93H412.594V88.2H426.994V83.4H417.394V78.6H412.594V73.8H417.394V69ZM460.594 83.4H479.794V88.2H460.594V83.4ZM460.594 73.8H479.794V78.6H460.594V73.8ZM515.812 88.2H520.613V93H511.013V88.2H506.213V59.4H515.812V88.2ZM522.994 69H532.594V93H522.994V69ZM522.994 59.4H532.594V64.2H522.994V59.4ZM539.784 69H554.184V73.8H544.584V78.6H554.184V83.4H558.984V88.2H554.184V93H534.984V88.2H549.384V83.4H539.784V78.6H534.984V73.8H539.784V69ZM570.984 69H575.784V73.8H570.984V88.2H575.784V93H566.184V88.2H561.384V59.4H570.984V69ZM595.003 88.2V64.2H590.203V88.2H595.003ZM599.803 64.2H604.603V88.2H599.803V93H585.403V88.2H580.603V64.2H585.403V59.4H599.803V64.2ZM618.984 78.6H623.784V83.4H618.984V93H609.384V64.2H614.184V59.4H628.584V64.2H618.984V78.6ZM635.794 59.4H645.394V64.2H640.594V93H645.394V97.8H635.794V93H630.994V64.2H635.794V59.4ZM846.909 83.4H856.509V93H851.709V97.8H842.109V93H846.909V83.4ZM1065.19 59.4V64.2H1069.99V93H1065.19V97.8H1055.59V93H1060.39V64.2H1055.59V59.4H1065.19ZM211.144 132.8H206.344V147.2H211.144V132.8ZM201.544 128H215.944V132.8H220.744V152H201.544V147.2H196.744V132.8H201.544V128ZM227.925 128H242.325V132.8H232.725V137.6H242.325V142.4H247.125V147.2H242.325V152H223.125V147.2H237.525V142.4H227.925V137.6H223.125V132.8H227.925V128ZM263.925 128H273.525V156.8H268.725V161.6H259.125V156.8H263.925V152H254.325V147.2H249.525V128H259.125V147.2H263.925V128ZM297.506 128V132.8H302.306V152H292.706V132.8H287.906V152H278.306V128H297.506ZM326.288 132.8H331.088V137.6H321.488V132.8H316.688V147.2H321.488V142.4H331.088V147.2H326.288V152H311.888V147.2H307.088V132.8H311.888V128H326.288V132.8ZM338.269 128H352.669V132.8H343.069V137.6H352.669V142.4H357.469V147.2H352.669V152H333.469V147.2H347.869V142.4H338.269V137.6H333.469V132.8H338.269V128ZM381.469 142.4H400.669V147.2H381.469V142.4ZM381.469 132.8H400.669V137.6H381.469V132.8ZM436.688 147.2H441.488V152H431.888V147.2H427.088V118.4H436.688V147.2ZM443.869 128H453.469V152H443.869V128ZM443.869 118.4H453.469V123.2H443.869V118.4ZM460.659 128H475.059V132.8H465.459V137.6H475.059V142.4H479.859V147.2H475.059V152H455.859V147.2H470.259V142.4H460.659V137.6H455.859V132.8H460.659V128ZM491.859 128H496.659V132.8H491.859V147.2H496.659V152H487.059V147.2H482.259V118.4H491.859V128ZM515.878 147.2V123.2H511.078V147.2H515.878ZM520.678 123.2H525.478V147.2H520.678V152H506.278V147.2H501.478V123.2H506.278V118.4H520.678V123.2ZM539.859 137.6H544.659V142.4H539.859V152H530.259V123.2H535.059V118.4H549.459V123.2H539.859V137.6ZM556.669 118.4H566.269V123.2H561.469V152H566.269V156.8H556.669V152H551.869V123.2H556.669V118.4ZM880.566 142.4H890.166V152H885.366V156.8H875.766V152H880.566V142.4ZM1156.41 118.4V123.2H1161.21V152H1156.41V156.8H1146.81V152H1151.61V123.2H1146.81V118.4H1156.41ZM211.144 191.8H206.344V206.2H211.144V191.8ZM201.544 187H211.144V177.4H220.744V211H201.544V206.2H196.744V191.8H201.544V187ZM239.925 191.8H235.125V206.2H239.925V191.8ZM235.125 187H244.725V191.8H249.525V206.2H244.725V211H230.325V206.2H225.525V177.4H235.125V187ZM287.906 187V191.8H292.706V211H283.106V191.8H278.306V211H268.706V191.8H263.906V211H254.306V187H287.906ZM299.925 187H314.325V191.8H304.725V196.6H314.325V201.4H319.125V206.2H314.325V211H295.125V206.2H309.525V201.4H299.925V196.6H295.125V191.8H299.925V187ZM343.125 201.4H362.325V206.2H343.125V201.4ZM343.125 191.8H362.325V196.6H343.125V191.8ZM398.344 206.2H403.144V211H393.544V206.2H388.744V177.4H398.344V206.2ZM405.525 187H415.125V211H405.525V187ZM405.525 177.4H415.125V182.2H405.525V177.4ZM422.316 187H436.716V191.8H427.116V196.6H436.716V201.4H441.516V206.2H436.716V211H417.516V206.2H431.916V201.4H422.316V196.6H417.516V191.8H422.316V187ZM453.516 187H458.316V191.8H453.516V206.2H458.316V211H448.716V206.2H443.916V177.4H453.516V187ZM477.534 206.2V182.2H472.734V206.2H477.534ZM482.334 182.2H487.134V206.2H482.334V211H467.934V206.2H463.134V182.2H467.934V177.4H482.334V182.2ZM501.516 196.6H506.316V201.4H501.516V211H491.916V182.2H496.716V177.4H511.116V182.2H501.516V196.6ZM518.325 177.4H527.925V182.2H523.125V211H527.925V215.8H518.325V211H513.525V182.2H518.325V177.4ZM739.05 201.4H748.65V211H743.85V215.8H734.25V211H739.05V201.4ZM988.519 201.4H998.119V211H993.319V215.8H983.719V211H988.519V201.4ZM1355.58 177.4V182.2H1360.38V211H1355.58V215.8H1345.98V211H1350.78V182.2H1345.98V177.4H1355.58ZM211.144 246H220.744V270H201.544V265.2H196.744V246H206.344V265.2H211.144V246ZM225.525 246H235.125V270H225.525V246ZM225.525 236.4H235.125V241.2H225.525V236.4ZM242.316 246H256.716V250.8H247.116V255.6H256.716V260.4H261.516V265.2H256.716V270H237.516V265.2H251.916V260.4H242.316V255.6H237.516V250.8H242.316V246ZM285.516 260.4H304.716V265.2H285.516V260.4ZM285.516 250.8H304.716V255.6H285.516V250.8ZM340.734 265.2H345.534V270H335.934V265.2H331.134V236.4H340.734V265.2ZM347.916 246H357.516V270H347.916V246ZM347.916 236.4H357.516V241.2H347.916V236.4ZM364.706 246H379.106V250.8H369.506V255.6H379.106V260.4H383.906V265.2H379.106V270H359.906V265.2H374.306V260.4H364.706V255.6H359.906V250.8H364.706V246ZM395.906 246H400.706V250.8H395.906V265.2H400.706V270H391.106V265.2H386.306V236.4H395.906V246ZM419.925 265.2V241.2H415.125V265.2H419.925ZM424.725 241.2H429.525V265.2H424.725V270H410.325V265.2H405.525V241.2H410.325V236.4H424.725V241.2ZM443.906 255.6H448.706V260.4H443.906V270H434.306V241.2H439.106V236.4H453.506V241.2H443.906V255.6ZM460.716 236.4H470.316V241.2H465.516V270H470.316V274.8H460.716V270H455.916V241.2H460.716V236.4ZM628.659 260.4H638.259V270H633.459V274.8H623.859V270H628.659V260.4ZM211.144 309.8H206.344V324.2H211.144V309.8ZM201.544 305H215.944V309.8H220.744V329H201.544V324.2H196.744V309.8H201.544V305ZM230.325 305H244.725V309.8H235.125V329H225.525V309.8H230.325V305ZM266.334 309.8H271.134V314.6H261.534V309.8H256.734V324.2H261.534V319.4H271.134V324.2H266.334V329H251.934V324.2H247.134V309.8H251.934V305H266.334V309.8ZM295.116 309.8H299.916V329H290.316V309.8H285.516V329H275.916V295.4H285.516V305H295.116V309.8ZM314.297 324.2H328.697V329H304.697V295.4H314.297V324.2ZM331.088 305H340.688V329H331.088V305ZM331.088 295.4H340.688V300.2H331.088V295.4ZM359.878 309.8H355.078V324.2H359.878V309.8ZM355.078 305H364.678V309.8H369.478V324.2H364.678V329H350.278V324.2H345.478V295.4H355.078V305ZM376.659 305H391.059V309.8H381.459V314.6H391.059V319.4H395.859V324.2H391.059V329H371.859V324.2H386.259V319.4H376.659V314.6H371.859V309.8H376.659V305ZM419.859 319.4H439.059V324.2H419.859V319.4ZM419.859 309.8H439.059V314.6H419.859V309.8ZM475.078 324.2H479.878V329H470.278V324.2H465.478V295.4H475.078V324.2ZM482.259 305H491.859V329H482.259V305ZM482.259 295.4H491.859V300.2H482.259V295.4ZM499.05 305H513.45V309.8H503.85V314.6H513.45V319.4H518.25V324.2H513.45V329H494.25V324.2H508.65V319.4H499.05V314.6H494.25V309.8H499.05V305ZM530.25 305H535.05V309.8H530.25V324.2H535.05V329H525.45V324.2H520.65V295.4H530.25V305ZM554.269 324.2V300.2H549.469V324.2H554.269ZM559.069 300.2H563.869V324.2H559.069V329H544.669V324.2H539.869V300.2H544.669V295.4H559.069V300.2ZM578.25 314.6H583.05V319.4H578.25V329H568.65V300.2H573.45V295.4H587.85V300.2H578.25V314.6ZM595.059 295.4H604.659V300.2H599.859V329H604.659V333.8H595.059V329H590.259V300.2H595.059V295.4ZM810.956 319.4H820.556V329H815.756V333.8H806.156V329H810.956V319.4ZM1086.84 295.4V300.2H1091.64V329H1086.84V333.8H1077.24V329H1082.04V300.2H1077.24V295.4H1086.84ZM211.144 368.8H206.344V383.2H211.144V368.8ZM201.544 364H211.144V354.4H220.744V388H201.544V383.2H196.744V368.8H201.544V364ZM239.925 373.6V368.8H235.125V373.6H239.925ZM244.725 368.8H249.525V378.4H235.125V383.2H249.525V388H230.325V383.2H225.525V368.8H230.325V364H244.725V368.8ZM268.706 368.8H263.906V383.2H268.706V368.8ZM273.506 364V368.8H278.306V383.2H273.506V388H263.906V397.6H254.306V364H273.506ZM297.488 373.6V368.8H292.688V373.6H297.488ZM302.288 368.8H307.088V378.4H292.688V383.2H307.088V388H287.888V383.2H283.088V368.8H287.888V364H302.288V368.8ZM331.069 364V368.8H335.869V388H326.269V368.8H321.469V388H311.869V364H331.069ZM355.05 368.8H350.25V383.2H355.05V368.8ZM345.45 364H355.05V354.4H364.65V388H345.45V383.2H340.65V368.8H345.45V364ZM383.831 373.6V368.8H379.031V373.6H383.831ZM388.631 368.8H393.431V378.4H379.031V383.2H393.431V388H374.231V383.2H369.431V368.8H374.231V364H388.631V368.8ZM417.413 364V368.8H422.213V388H412.613V368.8H407.812V388H398.213V364H417.413ZM446.194 368.8H450.994V373.6H441.394V368.8H436.594V383.2H441.394V378.4H450.994V383.2H446.194V388H431.794V383.2H426.994V368.8H431.794V364H446.194V368.8ZM455.775 364H465.375V388H455.775V364ZM455.775 354.4H465.375V359.2H455.775V354.4ZM484.566 373.6V368.8H479.766V373.6H484.566ZM489.366 368.8H494.166V378.4H479.766V383.2H494.166V388H474.966V383.2H470.166V368.8H474.966V364H489.366V368.8ZM501.347 364H515.747V368.8H506.147V373.6H515.747V378.4H520.547V383.2H515.747V388H496.547V383.2H510.947V378.4H501.347V373.6H496.547V368.8H501.347V364ZM544.547 378.4H563.747V383.2H544.547V378.4ZM544.547 368.8H563.747V373.6H544.547V368.8ZM599.766 383.2H604.566V388H594.966V383.2H590.166V354.4H599.766V383.2ZM606.947 364H616.547V388H606.947V364ZM606.947 354.4H616.547V359.2H606.947V354.4ZM623.738 364H638.138V368.8H628.538V373.6H638.138V378.4H642.938V383.2H638.138V388H618.938V383.2H633.338V378.4H623.738V373.6H618.938V368.8H623.738V364ZM654.938 364H659.738V368.8H654.938V383.2H659.738V388H650.138V383.2H645.338V354.4H654.938V364ZM678.956 383.2V359.2H674.156V383.2H678.956ZM683.756 359.2H688.556V383.2H683.756V388H669.356V383.2H664.556V359.2H669.356V354.4H683.756V359.2ZM702.938 373.6H707.738V378.4H702.938V388H693.338V359.2H698.138V354.4H712.538V359.2H702.938V373.6ZM719.747 354.4H729.347V359.2H724.547V388H729.347V392.8H719.747V388H714.947V359.2H719.747V354.4ZM988.425 378.4H998.025V388H993.225V392.8H983.625V388H988.425V378.4ZM1173.14 354.4V359.2H1177.94V388H1173.14V392.8H1163.54V388H1168.34V359.2H1163.54V354.4H1173.14ZM215.944 423V427.8H220.744V447H211.144V427.8H206.344V447H196.744V423H215.944ZM239.925 427.8H235.125V442.2H239.925V427.8ZM230.325 423H244.725V427.8H249.525V447H230.325V442.2H225.525V427.8H230.325V423ZM263.906 442.2H268.706V423H278.306V437.4H273.506V447H259.106V437.4H254.306V423H263.906V442.2ZM283.088 423H292.688V447H283.088V423ZM283.088 413.4H292.688V418.2H283.088V413.4ZM311.878 442.2V427.8H307.078V442.2H311.878ZM321.478 451.8H316.678V456.6H307.078V451.8H311.878V447H302.278V442.2H297.478V427.8H302.278V423H321.478V451.8ZM340.659 427.8H335.859V442.2H340.659V427.8ZM331.059 423H345.459V427.8H350.259V447H331.059V442.2H326.259V427.8H331.059V423ZM364.641 423H369.441V427.8H364.641V442.2H369.441V447H359.841V442.2H355.041V413.4H364.641V423ZM374.259 423H383.859V447H374.259V423ZM374.259 413.4H383.859V418.2H374.259V413.4ZM407.85 442.2V447H393.45V442.2H388.65V427.8H393.45V423H407.85V427.8H412.65V442.2H407.85ZM398.25 442.2H403.05V427.8H398.25V442.2ZM436.631 423V427.8H441.431V447H431.831V427.8H427.031V447H417.431V423H436.631ZM448.613 423H463.013V427.8H453.413V432.6H463.013V437.4H467.812V442.2H463.013V447H443.812V442.2H458.213V437.4H448.613V432.6H443.812V427.8H448.613V423ZM491.812 437.4H511.013V442.2H491.812V437.4ZM491.812 427.8H511.013V432.6H491.812V427.8ZM547.031 442.2H551.831V447H542.231V442.2H537.431V413.4H547.031V442.2ZM554.213 423H563.812V447H554.213V423ZM554.213 413.4H563.812V418.2H554.213V413.4ZM571.003 423H585.403V427.8H575.803V432.6H585.403V437.4H590.203V442.2H585.403V447H566.203V442.2H580.603V437.4H571.003V432.6H566.203V427.8H571.003V423ZM602.203 423H607.003V427.8H602.203V442.2H607.003V447H597.403V442.2H592.603V413.4H602.203V423ZM626.222 442.2V418.2H621.422V442.2H626.222ZM631.022 418.2H635.822V442.2H631.022V447H616.622V442.2H611.822V418.2H616.622V413.4H631.022V418.2ZM650.203 432.6H655.003V437.4H650.203V447H640.603V418.2H645.403V413.4H659.803V418.2H650.203V432.6ZM667.013 413.4H676.613V418.2H671.812V447H676.613V451.8H667.013V447H662.213V418.2H667.013V413.4ZM1204.38 437.4H1213.98V447H1209.18V451.8H1199.58V447H1204.38V437.4ZM1516.22 413.4V418.2H1521.02V447H1516.22V451.8H1506.62V447H1511.42V418.2H1506.62V413.4H1516.22ZM215.944 482V486.8H220.744V506H211.144V486.8H206.344V506H196.744V482H215.944ZM239.925 491.6V486.8H235.125V491.6H239.925ZM244.725 486.8H249.525V496.4H235.125V501.2H249.525V506H230.325V501.2H225.525V486.8H230.325V482H244.725V486.8ZM263.906 482H268.706V486.8H263.906V501.2H268.706V506H259.106V501.2H254.306V472.4H263.906V482ZM283.125 501.2H287.925V491.6H297.525V501.2H302.325V482H311.925V501.2H307.125V506H278.325V501.2H273.525V482H283.125V501.2ZM335.944 501.2V506H321.544V501.2H316.744V486.8H321.544V482H335.944V486.8H340.744V501.2H335.944ZM326.344 501.2H331.144V486.8H326.344V501.2ZM350.325 482H364.725V486.8H355.125V506H345.525V486.8H350.325V482ZM381.534 482H391.134V491.6H386.334V496.4H391.134V506H381.534V496.4H376.734V506H367.134V472.4H376.734V491.6H381.534V482ZM398.316 482H412.716V486.8H403.116V491.6H412.716V496.4H417.516V501.2H412.716V506H393.516V501.2H407.916V496.4H398.316V491.6H393.516V486.8H398.316V482ZM441.516 496.4H460.716V501.2H441.516V496.4ZM441.516 486.8H460.716V491.6H441.516V486.8ZM496.734 501.2H501.534V506H491.934V501.2H487.134V472.4H496.734V501.2ZM503.916 482H513.516V506H503.916V482ZM503.916 472.4H513.516V477.2H503.916V472.4ZM520.706 482H535.106V486.8H525.506V491.6H535.106V496.4H539.906V501.2H535.106V506H515.906V501.2H530.306V496.4H520.706V491.6H515.906V486.8H520.706V482ZM551.906 482H556.706V486.8H551.906V501.2H556.706V506H547.106V501.2H542.306V472.4H551.906V482ZM575.925 501.2V477.2H571.125V501.2H575.925ZM580.725 477.2H585.525V501.2H580.725V506H566.325V501.2H561.525V477.2H566.325V472.4H580.725V477.2ZM599.906 491.6H604.706V496.4H599.906V506H590.306V477.2H595.106V472.4H609.506V477.2H599.906V491.6ZM616.716 472.4H626.316V477.2H621.516V506H626.316V510.8H616.716V506H611.916V477.2H616.716V472.4ZM880.688 472.4V477.2H885.488V506H880.688V510.8H871.088V506H875.888V477.2H871.088V472.4H880.688ZM199.144 541H213.544V545.8H203.944V550.6H213.544V555.4H218.344V560.2H213.544V565H194.344V560.2H208.744V555.4H199.144V550.6H194.344V545.8H199.144V541ZM235.144 565H225.544V560.2H220.744V545.8H225.544V541H244.744V574.6H235.144V565ZM230.344 560.2H235.144V545.8H230.344V560.2ZM259.125 560.2H263.925V565H254.325V560.2H249.525V531.4H259.125V560.2ZM275.906 560.2H290.306V565H266.306V531.4H275.906V560.2ZM292.697 541H302.297V565H292.697V541ZM292.697 531.4H302.297V536.2H292.697V531.4ZM321.488 545.8H316.688V560.2H321.488V545.8ZM316.688 541H326.288V545.8H331.088V560.2H326.288V565H311.888V560.2H307.088V531.4H316.688V541ZM338.269 541H352.669V545.8H343.069V550.6H352.669V555.4H357.469V560.2H352.669V565H333.469V560.2H347.869V555.4H338.269V550.6H333.469V545.8H338.269V541ZM381.469 555.4H400.669V560.2H381.469V555.4ZM381.469 545.8H400.669V550.6H381.469V545.8ZM436.688 560.2H441.488V565H431.888V560.2H427.088V531.4H436.688V560.2ZM443.869 541H453.469V565H443.869V541ZM443.869 531.4H453.469V536.2H443.869V531.4ZM460.659 541H475.059V545.8H465.459V550.6H475.059V555.4H479.859V560.2H475.059V565H455.859V560.2H470.259V555.4H460.659V550.6H455.859V545.8H460.659V541ZM491.859 541H496.659V545.8H491.859V560.2H496.659V565H487.059V560.2H482.259V531.4H491.859V541ZM515.878 560.2V536.2H511.078V560.2H515.878ZM520.678 536.2H525.478V560.2H520.678V565H506.278V560.2H501.478V536.2H506.278V531.4H520.678V536.2ZM539.859 550.6H544.659V555.4H539.859V565H530.259V536.2H535.059V531.4H549.459V536.2H539.859V550.6ZM556.669 531.4H566.269V536.2H561.469V565H566.269V569.8H556.669V565H551.869V536.2H556.669V531.4ZM767.812 531.4V536.2H772.613V565H767.812V569.8H758.213V565H763.013V536.2H758.213V531.4H767.812ZM206.344 600H211.144V604.8H206.344V619.2H211.144V624H201.544V619.2H196.744V590.4H206.344V600ZM230.363 609.6V604.8H225.562V609.6H230.363ZM235.163 604.8H239.963V614.4H225.562V619.2H239.963V624H220.763V619.2H215.963V604.8H220.763V600H235.163V604.8ZM247.144 600H261.544V604.8H251.944V609.6H261.544V614.4H266.344V619.2H261.544V624H242.344V619.2H256.744V614.4H247.144V609.6H242.344V604.8H247.144V600ZM278.344 600H283.144V604.8H278.344V619.2H283.144V624H273.544V619.2H268.744V590.4H278.344V600ZM290.363 600H304.763V604.8H295.163V609.6H304.763V614.4H309.562V619.2H304.763V624H285.562V619.2H299.963V614.4H290.363V609.6H285.562V604.8H290.363V600ZM333.562 614.4H352.763V619.2H333.562V614.4ZM333.562 604.8H352.763V609.6H333.562V604.8ZM388.781 619.2H393.581V624H383.981V619.2H379.181V590.4H388.781V619.2ZM395.963 600H405.562V624H395.963V600ZM395.963 590.4H405.562V595.2H395.963V590.4ZM412.753 600H427.153V604.8H417.553V609.6H427.153V614.4H431.953V619.2H427.153V624H407.953V619.2H422.353V614.4H412.753V609.6H407.953V604.8H412.753V600ZM443.953 600H448.753V604.8H443.953V619.2H448.753V624H439.153V619.2H434.353V590.4H443.953V600ZM467.972 619.2V595.2H463.172V619.2H467.972ZM472.772 595.2H477.572V619.2H472.772V624H458.372V619.2H453.572V595.2H458.372V590.4H472.772V595.2ZM491.953 609.6H496.753V614.4H491.953V624H482.353V595.2H487.153V590.4H501.553V595.2H491.953V609.6ZM508.763 590.4H518.363V595.2H513.562V624H518.363V628.8H508.763V624H503.963V595.2H508.763V590.4ZM820.659 614.4H830.259V624H825.459V628.8H815.859V624H820.659V614.4ZM1106.13 614.4H1115.73V624H1110.93V628.8H1101.33V624H1106.13V614.4ZM1329.23 590.4V595.2H1334.03V624H1329.23V628.8H1319.63V624H1324.43V595.2H1319.63V590.4H1329.23ZM199.144 659H213.544V663.8H203.944V668.6H213.544V673.4H218.344V678.2H213.544V683H194.344V678.2H208.744V673.4H199.144V668.6H194.344V663.8H199.144V659ZM239.944 678.2V683H225.544V678.2H220.744V663.8H225.544V659H239.944V663.8H244.744V678.2H239.944ZM230.344 678.2H235.144V663.8H230.344V678.2ZM263.925 659H273.525V683H254.325V678.2H249.525V659H259.125V678.2H263.925V659ZM297.506 659V663.8H302.306V683H292.706V663.8H287.906V683H278.306V659H297.506ZM321.488 663.8H316.688V678.2H321.488V663.8ZM311.888 659H321.488V649.4H331.088V683H311.888V678.2H307.088V663.8H311.888V659ZM338.269 659H352.669V663.8H343.069V668.6H352.669V673.4H357.469V678.2H352.669V683H333.469V678.2H347.869V673.4H338.269V668.6H333.469V663.8H338.269V659ZM381.469 673.4H400.669V678.2H381.469V673.4ZM381.469 663.8H400.669V668.6H381.469V663.8ZM436.688 678.2H441.488V683H431.888V678.2H427.088V649.4H436.688V678.2ZM443.869 659H453.469V683H443.869V659ZM443.869 649.4H453.469V654.2H443.869V649.4ZM460.659 659H475.059V663.8H465.459V668.6H475.059V673.4H479.859V678.2H475.059V683H455.859V678.2H470.259V673.4H460.659V668.6H455.859V663.8H460.659V659ZM491.859 659H496.659V663.8H491.859V678.2H496.659V683H487.059V678.2H482.259V649.4H491.859V659ZM515.878 678.2V654.2H511.078V678.2H515.878ZM520.678 654.2H525.478V678.2H520.678V683H506.278V678.2H501.478V654.2H506.278V649.4H520.678V654.2ZM539.859 668.6H544.659V673.4H539.859V683H530.259V654.2H535.059V649.4H549.459V654.2H539.859V668.6ZM556.669 649.4H566.269V654.2H561.469V683H566.269V687.8H556.669V683H551.869V654.2H556.669V649.4ZM873.328 649.4V654.2H878.128V683H873.328V687.8H863.728V683H868.528V654.2H863.728V649.4H873.328ZM211.144 722.8H206.344V737.2H211.144V722.8ZM201.544 718H215.944V722.8H220.744V742H201.544V737.2H196.744V722.8H201.544V718ZM230.325 718H244.725V722.8H235.125V742H225.525V722.8H230.325V718ZM266.334 722.8H271.134V727.6H261.534V722.8H256.734V737.2H261.534V732.4H271.134V737.2H266.334V742H251.934V737.2H247.134V722.8H251.934V718H266.334V722.8ZM295.116 722.8H299.916V742H290.316V722.8H285.516V742H275.916V708.4H285.516V718H295.116V722.8ZM304.697 718H314.297V742H304.697V718ZM304.697 708.4H314.297V713.2H304.697V708.4ZM328.688 718H333.488V722.8H328.688V737.2H333.488V742H323.888V737.2H319.088V708.4H328.688V718ZM352.706 727.6V722.8H347.906V727.6H352.706ZM357.506 722.8H362.306V732.4H347.906V737.2H362.306V742H343.106V737.2H338.306V722.8H343.106V718H357.506V722.8ZM386.288 722.8H391.088V727.6H381.488V722.8H376.688V737.2H381.488V732.4H391.088V737.2H386.288V742H371.888V737.2H367.088V722.8H371.888V718H386.288V722.8ZM405.469 718H410.269V722.8H405.469V737.2H410.269V742H400.669V737.2H395.869V708.4H405.469V718ZM429.488 718H439.088V742H419.888V737.2H415.088V718H424.688V737.2H429.488V718ZM448.669 718H463.069V722.8H453.469V742H443.869V722.8H448.669V718ZM479.878 727.6V722.8H475.078V727.6H479.878ZM484.678 722.8H489.478V732.4H475.078V737.2H489.478V742H470.278V737.2H465.478V722.8H470.278V718H484.678V722.8ZM496.659 718H511.059V722.8H501.459V727.6H511.059V732.4H515.859V737.2H511.059V742H491.859V737.2H506.259V732.4H496.659V727.6H491.859V722.8H496.659V718ZM539.859 732.4H559.059V737.2H539.859V732.4ZM539.859 722.8H559.059V727.6H539.859V722.8ZM595.078 737.2H599.878V742H590.278V737.2H585.478V708.4H595.078V737.2ZM602.259 718H611.859V742H602.259V718ZM602.259 708.4H611.859V713.2H602.259V708.4ZM619.05 718H633.45V722.8H623.85V727.6H633.45V732.4H638.25V737.2H633.45V742H614.25V737.2H628.65V732.4H619.05V727.6H614.25V722.8H619.05V718ZM650.25 718H655.05V722.8H650.25V737.2H655.05V742H645.45V737.2H640.65V708.4H650.25V718ZM674.269 737.2V713.2H669.469V737.2H674.269ZM679.069 713.2H683.869V737.2H679.069V742H664.669V737.2H659.869V713.2H664.669V708.4H679.069V713.2ZM698.25 727.6H703.05V732.4H698.25V742H688.65V713.2H693.45V708.4H707.85V713.2H698.25V727.6ZM715.059 708.4H724.659V713.2H719.859V742H724.659V746.8H715.059V742H710.259V713.2H715.059V708.4ZM1240.47 732.4H1250.07V742H1245.27V746.8H1235.67V742H1240.47V732.4ZM1744.27 708.4V713.2H1749.07V742H1744.27V746.8H1734.67V742H1739.47V713.2H1734.67V708.4H1744.27ZM211.144 781.8H206.344V796.2H211.144V781.8ZM201.544 777H215.944V781.8H220.744V801H201.544V796.2H196.744V781.8H201.544V777ZM230.325 777H244.725V781.8H235.125V801H225.525V781.8H230.325V777ZM266.334 781.8H271.134V786.6H261.534V781.8H256.734V796.2H261.534V791.4H271.134V796.2H266.334V801H251.934V796.2H247.134V781.8H251.934V777H266.334V781.8ZM295.116 781.8H299.916V801H290.316V781.8H285.516V801H275.916V767.4H285.516V777H295.116V781.8ZM323.897 781.8V786.6H314.297V801H304.697V767.4H323.897V772.2H328.697V781.8H323.897ZM314.297 781.8H319.097V772.2H314.297V781.8ZM345.488 781.8H340.688V796.2H345.488V781.8ZM335.888 777H350.288V781.8H355.088V801H335.888V796.2H331.088V781.8H335.888V777ZM369.469 777H374.269V781.8H369.469V796.2H374.269V801H364.669V796.2H359.869V767.4H369.469V777ZM388.688 777H393.488V781.8H388.688V796.2H393.488V801H383.888V796.2H379.088V767.4H388.688V777ZM412.706 786.6V781.8H407.906V786.6H412.706ZM417.506 781.8H422.306V791.4H407.906V796.2H422.306V801H403.106V796.2H398.306V781.8H403.106V777H417.506V781.8ZM431.888 777H446.288V781.8H436.688V801H427.088V781.8H431.888V777ZM467.897 777V781.8H472.697V801H463.097V781.8H458.297V801H448.697V777H467.897ZM479.878 777H494.278V781.8H484.678V786.6H494.278V791.4H499.078V796.2H494.278V801H475.078V796.2H489.478V791.4H479.878V786.6H475.078V781.8H479.878V777ZM523.078 791.4H542.278V796.2H523.078V791.4ZM523.078 781.8H542.278V786.6H523.078V781.8ZM578.297 796.2H583.097V801H573.497V796.2H568.697V767.4H578.297V796.2ZM585.478 777H595.078V801H585.478V777ZM585.478 767.4H595.078V772.2H585.478V767.4ZM602.269 777H616.669V781.8H607.069V786.6H616.669V791.4H621.469V796.2H616.669V801H597.469V796.2H611.869V791.4H602.269V786.6H597.469V781.8H602.269V777ZM633.469 777H638.269V781.8H633.469V796.2H638.269V801H628.669V796.2H623.869V767.4H633.469V777ZM657.488 796.2V772.2H652.688V796.2H657.488ZM662.288 772.2H667.088V796.2H662.288V801H647.888V796.2H643.088V772.2H647.888V767.4H662.288V772.2ZM681.469 786.6H686.269V791.4H681.469V801H671.869V772.2H676.669V767.4H691.069V772.2H681.469V786.6ZM698.278 767.4H707.878V772.2H703.078V801H707.878V805.8H698.278V801H693.478V772.2H698.278V767.4ZM856.613 791.4H866.213V801H861.413V805.8H851.812V801H856.613V791.4ZM1036.52 791.4H1046.12V801H1041.32V805.8H1031.72V801H1036.52V791.4ZM1269.21 791.4H1278.81V801H1274.01V805.8H1264.41V801H1269.21V791.4ZM1468.31 767.4V772.2H1473.11V801H1468.31V805.8H1458.71V801H1463.51V772.2H1458.71V767.4H1468.31ZM211.144 840.8H206.344V855.2H211.144V840.8ZM206.344 836H215.944V840.8H220.744V855.2H215.944V860H201.544V855.2H196.744V826.4H206.344V836ZM239.925 845.6V840.8H235.125V845.6H239.925ZM244.725 840.8H249.525V850.4H235.125V855.2H249.525V860H230.325V855.2H225.525V840.8H230.325V836H244.725V840.8ZM273.506 840.8H278.306V860H268.706V840.8H263.906V860H254.306V826.4H263.906V836H273.506V840.8ZM297.488 840.8H292.688V855.2H297.488V840.8ZM287.888 836H302.288V840.8H307.088V860H287.888V855.2H283.088V840.8H287.888V836ZM321.469 855.2H326.269V836H335.869V850.4H331.069V860H316.669V850.4H311.869V836H321.469V855.2ZM340.65 836H350.25V860H340.65V836ZM340.65 826.4H350.25V831.2H340.65V826.4ZM374.241 855.2V860H359.841V855.2H355.041V840.8H359.841V836H374.241V840.8H379.041V855.2H374.241ZM364.641 855.2H369.441V840.8H364.641V855.2ZM388.622 836H403.022V840.8H393.422V860H383.822V840.8H388.622V836ZM419.831 840.8H415.031V855.2H419.831V840.8ZM410.231 836H424.631V840.8H429.431V860H410.231V855.2H405.431V840.8H410.231V836ZM443.812 855.2H448.613V860H439.013V855.2H434.213V826.4H443.812V855.2ZM470.194 840.8V845.6H460.594V860H450.994V826.4H470.194V831.2H474.994V840.8H470.194ZM460.594 840.8H465.394V831.2H460.594V840.8ZM491.784 840.8H486.984V855.2H491.784V840.8ZM482.184 836H496.584V840.8H501.384V860H482.184V855.2H477.384V840.8H482.184V836ZM515.766 836H520.566V840.8H515.766V855.2H520.566V860H510.966V855.2H506.166V826.4H515.766V836ZM534.984 836H539.784V840.8H534.984V855.2H539.784V860H530.184V855.2H525.384V826.4H534.984V836ZM559.003 845.6V840.8H554.203V845.6H559.003ZM563.803 840.8H568.603V850.4H554.203V855.2H568.603V860H549.403V855.2H544.603V840.8H549.403V836H563.803V840.8ZM578.184 836H592.584V840.8H582.984V860H573.384V840.8H578.184V836ZM614.194 836V840.8H618.994V860H609.394V840.8H604.594V860H594.994V836H614.194ZM626.175 836H640.575V840.8H630.975V845.6H640.575V850.4H645.375V855.2H640.575V860H621.375V855.2H635.775V850.4H626.175V845.6H621.375V840.8H626.175V836ZM669.375 850.4H688.575V855.2H669.375V850.4ZM669.375 840.8H688.575V845.6H669.375V840.8ZM724.594 855.2H729.394V860H719.794V855.2H714.994V826.4H724.594V855.2ZM731.775 836H741.375V860H731.775V836ZM731.775 826.4H741.375V831.2H731.775V826.4ZM748.566 836H762.966V840.8H753.366V845.6H762.966V850.4H767.766V855.2H762.966V860H743.766V855.2H758.166V850.4H748.566V845.6H743.766V840.8H748.566V836ZM779.766 836H784.566V840.8H779.766V855.2H784.566V860H774.966V855.2H770.166V826.4H779.766V836ZM803.784 855.2V831.2H798.984V855.2H803.784ZM808.584 831.2H813.384V855.2H808.584V860H794.184V855.2H789.384V831.2H794.184V826.4H808.584V831.2ZM827.766 845.6H832.566V850.4H827.766V860H818.166V831.2H822.966V826.4H837.366V831.2H827.766V845.6ZM844.575 826.4H854.175V831.2H849.375V860H854.175V864.8H844.575V860H839.775V831.2H844.575V826.4ZM1134.91 850.4H1144.51V860H1139.71V864.8H1130.11V860H1134.91V850.4ZM1444.38 850.4H1453.98V860H1449.18V864.8H1439.58V860H1444.38V850.4ZM1770.68 850.4H1780.28V860H1775.48V864.8H1765.88V860H1770.68V850.4ZM1993.8 850.4H2003.4V860H1998.6V864.8H1989V860H1993.8V850.4ZM2303.3 826.4V831.2H2308.1V860H2303.3V864.8H2293.7V860H2298.5V831.2H2293.7V826.4H2303.3ZM199.144 895H213.544V899.8H203.944V904.6H213.544V909.4H218.344V914.2H213.544V919H194.344V914.2H208.744V909.4H199.144V904.6H194.344V899.8H199.144V895ZM230.344 895H235.144V899.8H230.344V914.2H235.144V919H225.544V914.2H220.744V885.4H230.344V895ZM244.763 895H259.163V899.8H249.562V919H239.963V899.8H244.763V895ZM275.972 895H285.572V919H266.372V914.2H261.572V895H271.172V914.2H275.972V895ZM309.553 899.8H314.353V904.6H304.753V899.8H299.953V914.2H304.753V909.4H314.353V914.2H309.553V919H295.153V914.2H290.353V899.8H295.153V895H309.553V899.8ZM328.734 895H333.534V899.8H328.734V914.2H333.534V919H323.934V914.2H319.134V885.4H328.734V895ZM352.753 895H362.353V919H343.153V914.2H338.353V895H347.953V914.2H352.753V895ZM371.934 895H386.334V899.8H376.734V919H367.134V899.8H371.934V895ZM403.144 899.8H398.344V914.2H403.144V899.8ZM393.544 895H407.944V899.8H412.744V919H393.544V914.2H388.744V899.8H393.544V895ZM427.125 914.2H431.925V919H422.325V914.2H417.525V885.4H427.125V914.2ZM453.506 899.8V904.6H443.906V919H434.306V885.4H453.506V890.2H458.306V899.8H453.506ZM443.906 899.8H448.706V890.2H443.906V899.8ZM475.097 899.8H470.297V914.2H475.097V899.8ZM465.497 895H479.897V899.8H484.697V919H465.497V914.2H460.697V899.8H465.497V895ZM499.078 895H503.878V899.8H499.078V914.2H503.878V919H494.278V914.2H489.478V885.4H499.078V895ZM518.297 895H523.097V899.8H518.297V914.2H523.097V919H513.497V914.2H508.697V885.4H518.297V895ZM542.316 904.6V899.8H537.516V904.6H542.316ZM547.116 899.8H551.916V909.4H537.516V914.2H551.916V919H532.716V914.2H527.916V899.8H532.716V895H547.116V899.8ZM561.497 895H575.897V899.8H566.297V919H556.697V899.8H561.497V895ZM597.506 895V899.8H602.306V919H592.706V899.8H587.906V919H578.306V895H597.506ZM609.488 895H623.888V899.8H614.288V904.6H623.888V909.4H628.688V914.2H623.888V919H604.688V914.2H619.088V909.4H609.488V904.6H604.688V899.8H609.488V895ZM652.688 909.4H671.888V914.2H652.688V909.4ZM652.688 899.8H671.888V904.6H652.688V899.8ZM707.906 914.2H712.706V919H703.106V914.2H698.306V885.4H707.906V914.2ZM715.088 895H724.688V919H715.088V895ZM715.088 885.4H724.688V890.2H715.088V885.4ZM731.878 895H746.278V899.8H736.678V904.6H746.278V909.4H751.078V914.2H746.278V919H727.078V914.2H741.478V909.4H731.878V904.6H727.078V899.8H731.878V895ZM763.078 895H767.878V899.8H763.078V914.2H767.878V919H758.278V914.2H753.478V885.4H763.078V895ZM787.097 914.2V890.2H782.297V914.2H787.097ZM791.897 890.2H796.697V914.2H791.897V919H777.497V914.2H772.697V890.2H777.497V885.4H791.897V890.2ZM811.078 904.6H815.878V909.4H811.078V919H801.478V890.2H806.278V885.4H820.678V890.2H811.078V904.6ZM827.888 885.4H837.488V890.2H832.688V919H837.488V923.8H827.888V919H823.088V890.2H827.888V885.4ZM1087 909.4H1096.6V919H1091.8V923.8H1082.2V919H1087V909.4ZM1319.69 909.4H1329.29V919H1324.49V923.8H1314.89V919H1319.69V909.4ZM1569.16 909.4H1578.76V919H1573.96V923.8H1564.36V919H1569.16V909.4ZM1902.63 909.4H1912.23V919H1907.43V923.8H1897.83V919H1902.63V909.4ZM2176.08 885.4V890.2H2180.88V919H2176.08V923.8H2166.48V919H2171.28V890.2H2166.48V885.4H2176.08ZM215.944 958.8H220.744V963.6H211.144V958.8H206.344V973.2H211.144V968.4H220.744V973.2H215.944V978H201.544V973.2H196.744V958.8H201.544V954H215.944V958.8ZM230.325 954H244.725V958.8H235.125V978H225.525V958.8H230.325V954ZM261.534 963.6V958.8H256.734V963.6H261.534ZM266.334 958.8H271.134V968.4H256.734V973.2H271.134V978H251.934V973.2H247.134V958.8H251.934V954H266.334V958.8ZM290.316 958.8H285.516V973.2H290.316V958.8ZM280.716 954H295.116V958.8H299.916V978H280.716V973.2H275.916V958.8H280.716V954ZM314.297 954H319.097V958.8H314.297V973.2H319.097V978H309.497V973.2H304.697V944.4H314.297V954ZM323.916 954H333.516V978H323.916V954ZM323.916 944.4H333.516V949.2H323.916V944.4ZM357.506 973.2V978H343.106V973.2H338.306V958.8H343.106V954H357.506V958.8H362.306V973.2H357.506ZM347.906 973.2H352.706V958.8H347.906V973.2ZM386.288 954V958.8H391.088V978H381.488V958.8H376.688V978H367.088V954H386.288ZM410.269 958.8H405.469V973.2H410.269V958.8ZM400.669 954H415.069V958.8H419.869V978H400.669V973.2H395.869V958.8H400.669V954ZM434.25 973.2H439.05V978H429.45V973.2H424.65V944.4H434.25V973.2ZM460.631 958.8V963.6H451.031V978H441.431V944.4H460.631V949.2H465.431V958.8H460.631ZM451.031 958.8H455.831V949.2H451.031V958.8ZM482.222 958.8H477.422V973.2H482.222V958.8ZM472.622 954H487.022V958.8H491.822V978H472.622V973.2H467.822V958.8H472.622V954ZM506.203 954H511.003V958.8H506.203V973.2H511.003V978H501.403V973.2H496.603V944.4H506.203V954ZM525.422 954H530.222V958.8H525.422V973.2H530.222V978H520.622V973.2H515.822V944.4H525.422V954ZM549.441 963.6V958.8H544.641V963.6H549.441ZM554.241 958.8H559.041V968.4H544.641V973.2H559.041V978H539.841V973.2H535.041V958.8H539.841V954H554.241V958.8ZM568.622 954H583.022V958.8H573.422V978H563.822V958.8H568.622V954ZM604.631 954V958.8H609.431V978H599.831V958.8H595.031V978H585.431V954H604.631ZM616.613 954H631.013V958.8H621.413V963.6H631.013V968.4H635.812V973.2H631.013V978H611.812V973.2H626.213V968.4H616.613V963.6H611.812V958.8H616.613V954ZM659.812 968.4H679.013V973.2H659.812V968.4ZM659.812 958.8H679.013V963.6H659.812V958.8ZM715.031 973.2H719.831V978H710.231V973.2H705.431V944.4H715.031V973.2ZM722.213 954H731.812V978H722.213V954ZM722.213 944.4H731.812V949.2H722.213V944.4ZM739.003 954H753.403V958.8H743.803V963.6H753.403V968.4H758.203V973.2H753.403V978H734.203V973.2H748.603V968.4H739.003V963.6H734.203V958.8H739.003V954ZM770.203 954H775.003V958.8H770.203V973.2H775.003V978H765.403V973.2H760.603V944.4H770.203V954ZM794.222 973.2V949.2H789.422V973.2H794.222ZM799.022 949.2H803.822V973.2H799.022V978H784.622V973.2H779.822V949.2H784.622V944.4H799.022V949.2ZM818.203 963.6H823.003V968.4H818.203V978H808.603V949.2H813.403V944.4H827.803V949.2H818.203V963.6ZM835.013 944.4H844.613V949.2H839.812V978H844.613V982.8H835.013V978H830.213V949.2H835.013V944.4ZM1307.74 968.4H1317.34V978H1312.54V982.8H1302.94V978H1307.74V968.4ZM1573.99 968.4H1583.59V978H1578.79V982.8H1569.19V978H1573.99V968.4ZM2053.85 968.4H2063.45V978H2058.65V982.8H2049.05V978H2053.85V968.4ZM2382.47 944.4V949.2H2387.27V978H2382.47V982.8H2372.87V978H2377.67V949.2H2372.87V944.4H2382.47ZM9.6 1003.4V1008.2H14.4V1017.8H19.2V1022.6H14.4V1037H9.6V1041.8H0V1037H4.8V1022.6H9.6V1017.8H4.8V1008.2H0V1003.4H9.6Z" fill="white"/>
<path d="M650.213 59.4H659.812V69H650.213V59.4ZM664.613 59.4H674.213V69H664.613V59.4ZM688.594 73.8H693.394V59.4H702.994V69H698.194V83.4H702.994V93H693.394V78.6H688.594V93H678.994V59.4H688.594V73.8ZM726.975 88.2V93H712.575V88.2H707.775V73.8H712.575V69H726.975V73.8H731.775V88.2H726.975ZM717.375 88.2H722.175V73.8H717.375V88.2ZM746.156 69H750.956V73.8H746.156V88.2H750.956V93H741.356V88.2H736.556V59.4H746.156V69ZM765.375 88.2H770.175V93H760.575V88.2H755.775V59.4H765.375V88.2ZM772.556 69H782.156V93H772.556V69ZM772.556 59.4H782.156V64.2H772.556V59.4ZM806.147 69V73.8H810.947V93H801.347V73.8H796.547V93H786.947V69H806.147ZM815.728 59.4H825.328V69H815.728V59.4ZM830.128 59.4H839.728V69H830.128V59.4ZM885.291 59.4H894.891V69H885.291V59.4ZM899.691 59.4H909.291V69H899.691V59.4ZM926.072 59.4H935.672V88.2H930.872V93H916.472V88.2H911.672V83.4H921.272V88.2H926.072V59.4ZM954.863 73.8H950.062V88.2H954.863V73.8ZM945.263 69H959.663V73.8H964.463V93H945.263V88.2H940.463V73.8H945.263V69ZM978.844 88.2H983.644V69H993.244V83.4H988.444V93H974.044V83.4H969.244V69H978.844V88.2ZM1012.43 73.8H1007.62V88.2H1012.43V73.8ZM1002.83 69H1017.23V73.8H1022.03V93H1002.83V88.2H998.025V73.8H1002.83V69ZM1026.81 59.4H1036.41V69H1026.81V59.4ZM1041.21 59.4H1050.81V69H1041.21V59.4ZM571.088 118.4H580.688V128H571.088V118.4ZM585.488 118.4H595.088V128H585.488V118.4ZM609.469 147.2H614.269V142.4H623.869V147.2H619.069V152H604.669V147.2H599.869V123.2H604.669V118.4H619.069V123.2H623.869V128H614.269V123.2H609.469V147.2ZM645.459 147.2V152H631.059V147.2H626.259V132.8H631.059V128H645.459V132.8H650.259V147.2H645.459ZM635.859 147.2H640.659V132.8H635.859V147.2ZM659.841 128H674.241V132.8H664.641V152H655.041V132.8H659.841V128ZM695.85 147.2V152H681.45V147.2H676.65V132.8H681.45V128H695.85V132.8H700.65V147.2H695.85ZM686.25 147.2H691.05V132.8H686.25V147.2ZM719.831 128H729.431V152H710.231V147.2H705.431V128H715.031V147.2H719.831V128ZM743.812 128H748.613V132.8H743.812V147.2H748.613V152H739.013V147.2H734.213V118.4H743.812V128ZM753.431 128H763.031V152H753.431V128ZM753.431 118.4H763.031V123.2H753.431V118.4ZM787.022 128V132.8H791.822V152H782.222V132.8H777.422V152H767.822V128H787.022ZM811.003 137.6V132.8H806.203V137.6H811.003ZM815.803 132.8H820.603V142.4H806.203V147.2H820.603V152H801.403V147.2H796.603V132.8H801.403V128H815.803V132.8ZM827.784 128H842.184V132.8H832.584V137.6H842.184V142.4H846.984V147.2H842.184V152H822.984V147.2H837.384V142.4H827.784V137.6H822.984V132.8H827.784V128ZM849.384 118.4H858.984V128H849.384V118.4ZM863.784 118.4H873.384V128H863.784V118.4ZM918.947 118.4H928.547V128H918.947V118.4ZM933.347 118.4H942.947V128H933.347V118.4ZM957.328 132.8H962.128V123.2H957.328V132.8ZM947.728 118.4H966.928V123.2H971.728V132.8H966.928V137.6H971.728V152H962.128V137.6H957.328V152H947.728V118.4ZM995.709 142.4H1000.51V152H990.909V142.4H986.109V152H976.509V142.4H981.309V137.6H976.509V128H986.109V137.6H990.909V128H1000.51V137.6H995.709V142.4ZM1017.29 118.4H1026.89V147.2H1022.09V152H1007.69V147.2H1002.89V142.4H1012.49V147.2H1017.29V118.4ZM1046.08 132.8H1041.28V147.2H1046.08V132.8ZM1036.48 128H1050.88V132.8H1055.68V152H1036.48V147.2H1031.68V132.8H1036.48V128ZM1070.06 147.2H1074.86V128H1084.46V142.4H1079.66V152H1065.26V142.4H1060.46V128H1070.06V147.2ZM1103.64 132.8H1098.84V147.2H1103.64V132.8ZM1094.04 128H1108.44V132.8H1113.24V152H1094.04V147.2H1089.24V132.8H1094.04V128ZM1118.03 118.4H1127.62V128H1118.03V118.4ZM1132.43 118.4H1142.03V128H1132.43V118.4ZM532.744 177.4H542.344V187H532.744V177.4ZM547.144 177.4H556.744V187H547.144V177.4ZM580.725 182.2H585.525V187H575.925V182.2H571.125V191.8H580.725V196.6H585.525V206.2H580.725V211H566.325V206.2H561.525V201.4H571.125V206.2H575.925V196.6H566.325V191.8H561.525V182.2H566.325V177.4H580.725V182.2ZM604.706 206.2V211H595.106V206.2H590.306V182.2H595.106V177.4H609.506V182.2H614.306V201.4H609.506V206.2H614.306V211H609.506V206.2H604.706ZM599.906 206.2H604.706V182.2H599.906V206.2ZM628.688 206.2H643.088V211H619.088V177.4H628.688V206.2ZM645.478 187H655.078V211H645.478V187ZM645.478 177.4H655.078V182.2H645.478V177.4ZM669.469 187H674.269V191.8H669.469V206.2H674.269V211H664.669V206.2H659.869V177.4H669.469V187ZM693.488 196.6V191.8H688.688V196.6H693.488ZM698.288 191.8H703.088V201.4H688.688V206.2H703.088V211H683.888V206.2H679.088V191.8H683.888V187H698.288V191.8ZM707.869 177.4H717.469V187H707.869V177.4ZM722.269 177.4H731.869V187H722.269V177.4ZM777.431 177.4H787.031V187H777.431V177.4ZM791.831 177.4H801.431V187H791.831V177.4ZM835.013 177.4H839.813V211H830.213V196.6H825.413V201.4H820.613V196.6H815.812V211H806.213V177.4H811.013V182.2H815.812V187H820.613V191.8H825.413V187H830.213V182.2H835.013V177.4ZM859.003 187H868.603V215.8H863.803V220.6H854.203V215.8H859.003V211H849.403V206.2H844.603V187H854.203V206.2H859.003V187ZM892.584 182.2H897.384V187H887.784V182.2H882.984V191.8H892.584V196.6H897.384V206.2H892.584V211H878.184V206.2H873.384V201.4H882.984V206.2H887.784V196.6H878.184V191.8H873.384V182.2H878.184V177.4H892.584V182.2ZM916.566 206.2V211H906.966V206.2H902.166V182.2H906.966V177.4H921.366V182.2H926.166V201.4H921.366V206.2H926.166V211H921.366V206.2H916.566ZM911.766 206.2H916.566V182.2H911.766V206.2ZM940.547 206.2H954.947V211H930.947V177.4H940.547V206.2ZM957.338 177.4H966.938V187H957.338V177.4ZM971.738 177.4H981.338V187H971.738V177.4ZM1026.9 177.4H1036.5V187H1026.9V177.4ZM1041.3 177.4H1050.9V187H1041.3V177.4ZM1074.88 191.8V196.6H1065.28V211H1055.68V177.4H1074.88V182.2H1079.68V191.8H1074.88ZM1065.28 191.8H1070.08V182.2H1065.28V191.8ZM1101.27 206.2V211H1086.87V206.2H1082.07V191.8H1086.87V187H1101.27V191.8H1106.07V206.2H1101.27ZM1091.67 206.2H1096.47V191.8H1091.67V206.2ZM1113.25 187H1127.65V191.8H1118.05V196.6H1127.65V201.4H1132.45V206.2H1127.65V211H1108.45V206.2H1122.85V201.4H1113.25V196.6H1108.45V191.8H1113.25V187ZM1144.45 187H1149.25V191.8H1144.45V206.2H1149.25V211H1139.65V206.2H1134.85V177.4H1144.45V187ZM1168.47 206.2V191.8H1163.67V206.2H1168.47ZM1178.07 215.8H1173.27V220.6H1163.67V215.8H1168.47V211H1158.87V206.2H1154.07V191.8H1158.87V187H1178.07V215.8ZM1187.65 187H1202.05V191.8H1192.45V211H1182.85V191.8H1187.65V187ZM1218.86 196.6V191.8H1214.06V196.6H1218.86ZM1223.66 191.8H1228.46V201.4H1214.06V206.2H1228.46V211H1209.26V206.2H1204.46V191.8H1209.26V187H1223.66V191.8ZM1252.44 182.2H1257.24V187H1247.64V182.2H1242.84V191.8H1252.44V196.6H1257.24V206.2H1252.44V211H1238.04V206.2H1233.24V201.4H1242.84V206.2H1247.64V196.6H1238.04V191.8H1233.24V182.2H1238.04V177.4H1252.44V182.2ZM1276.43 206.2V211H1266.83V206.2H1262.03V182.2H1266.83V177.4H1281.23V182.2H1286.03V201.4H1281.23V206.2H1286.03V211H1281.23V206.2H1276.43ZM1271.62 206.2H1276.43V182.2H1271.62V206.2ZM1300.41 206.2H1314.81V211H1290.81V177.4H1300.41V206.2ZM1317.2 177.4H1326.8V187H1317.2V177.4ZM1331.6 177.4H1341.2V187H1331.6V177.4ZM475.134 236.4H484.734V246H475.134V236.4ZM489.534 236.4H499.134V246H489.534V236.4ZM518.316 236.4H527.916V250.8H523.116V255.6H527.916V270H518.316V255.6H513.516V270H503.916V255.6H508.716V250.8H503.916V236.4H513.516V250.8H518.316V236.4ZM561.497 236.4H566.297V270H556.697V255.6H551.897V260.4H547.097V255.6H542.297V270H532.697V236.4H537.497V241.2H542.297V246H547.097V250.8H551.897V246H556.697V241.2H561.497V236.4ZM580.688 265.2H595.088V270H571.088V236.4H580.688V265.2ZM597.478 236.4H607.078V246H597.478V236.4ZM611.878 236.4H621.478V246H611.878V236.4ZM667.041 236.4H676.641V246H667.041V236.4ZM681.441 236.4H691.041V246H681.441V236.4ZM707.822 236.4H717.422V265.2H712.622V270H698.222V265.2H693.422V260.4H703.022V265.2H707.822V236.4ZM736.613 255.6V250.8H731.812V255.6H736.613ZM741.413 250.8H746.213V260.4H731.812V265.2H746.213V270H727.013V265.2H722.213V250.8H727.013V246H741.413V250.8ZM760.594 246H765.394V250.8H760.594V265.2H765.394V270H755.794V265.2H750.994V236.4H760.594V246ZM784.613 250.8H779.812V265.2H784.613V250.8ZM789.413 246V250.8H794.213V265.2H789.413V270H779.812V279.6H770.213V246H789.413ZM813.394 250.8H808.594V265.2H813.394V250.8ZM803.794 246H818.194V250.8H822.994V270H803.794V265.2H798.994V250.8H803.794V246ZM846.975 250.8H851.775V255.6H842.175V250.8H837.375V265.2H842.175V260.4H851.775V265.2H846.975V270H832.575V265.2H827.775V250.8H832.575V246H846.975V250.8ZM870.956 246H880.556V255.6H875.756V260.4H880.556V270H870.956V260.4H866.156V270H856.556V236.4H866.156V255.6H870.956V246ZM918.938 265.2H923.738V260.4H933.338V265.2H928.538V270H914.138V265.2H909.338V241.2H914.138V236.4H928.538V241.2H933.338V246H923.738V241.2H918.938V265.2ZM954.928 265.2V270H940.528V265.2H935.728V250.8H940.528V246H954.928V250.8H959.728V265.2H954.928ZM945.328 265.2H950.128V250.8H945.328V265.2ZM998.109 246V250.8H1002.91V270H993.309V250.8H988.509V270H978.909V250.8H974.109V270H964.509V246H998.109ZM1022.13 250.8H1017.33V265.2H1022.13V250.8ZM1026.93 246V250.8H1031.73V265.2H1026.93V270H1017.33V279.6H1007.73V246H1026.93ZM1055.71 265.2V270H1041.31V265.2H1036.51V250.8H1041.31V246H1055.71V250.8H1060.51V265.2H1055.71ZM1046.11 265.2H1050.91V250.8H1046.11V265.2ZM1067.69 246H1082.09V250.8H1072.49V255.6H1082.09V260.4H1086.89V265.2H1082.09V270H1062.89V265.2H1077.29V260.4H1067.69V255.6H1062.89V250.8H1067.69V246ZM1103.69 255.6V250.8H1098.89V255.6H1103.69ZM1108.49 250.8H1113.29V260.4H1098.89V265.2H1113.29V270H1094.09V265.2H1089.29V250.8H1094.09V246H1108.49V250.8ZM1118.07 236.4H1127.67V246H1118.07V236.4ZM1132.47 236.4H1142.07V246H1132.47V236.4ZM1156.45 236.4V241.2H1161.25V270H1156.45V274.8H1146.85V270H1151.65V241.2H1146.85V236.4H1156.45ZM609.478 295.4H619.078V305H609.478V295.4ZM623.878 295.4H633.478V305H623.878V295.4ZM647.859 309.8H652.659V295.4H662.259V305H657.459V319.4H662.259V329H652.659V314.6H647.859V329H638.259V295.4H647.859V309.8ZM686.241 324.2V329H671.841V324.2H667.041V309.8H671.841V305H686.241V309.8H691.041V324.2H686.241ZM676.641 324.2H681.441V309.8H676.641V324.2ZM722.222 295.4V300.2H712.622V329H703.022V300.2H693.422V295.4H722.222ZM734.203 324.2H748.603V329H724.603V295.4H748.603V300.2H734.203V309.8H743.803V314.6H734.203V324.2ZM765.394 319.4H760.594V329H750.994V300.2H755.794V295.4H770.194V300.2H774.994V329H765.394V319.4ZM760.594 314.6H765.394V300.2H760.594V314.6ZM779.775 295.4H789.375V305H779.775V295.4ZM794.175 295.4H803.775V305H794.175V295.4ZM849.338 295.4H858.938V305H849.338V295.4ZM863.738 295.4H873.338V305H863.738V295.4ZM887.719 324.2H902.119V329H878.119V295.4H902.119V300.2H887.719V309.8H897.319V314.6H887.719V324.2ZM914.109 324.2H918.909V329H909.309V324.2H904.509V295.4H914.109V324.2ZM954.891 305V309.8H959.691V329H950.091V309.8H945.291V329H935.691V309.8H930.891V329H921.291V305H954.891ZM966.909 305H981.309V309.8H971.709V314.6H981.309V319.4H986.109V324.2H981.309V329H962.109V324.2H976.509V319.4H966.909V314.6H962.109V309.8H966.909V305ZM998.109 324.2H1002.91V329H993.309V324.2H988.509V295.4H998.109V324.2ZM1005.29 305H1014.89V329H1005.29V305ZM1005.29 295.4H1014.89V300.2H1005.29V295.4ZM1034.08 314.6V309.8H1029.28V314.6H1034.08ZM1038.88 309.8H1043.68V319.4H1029.28V324.2H1043.68V329H1024.48V324.2H1019.68V309.8H1024.48V305H1038.88V309.8ZM1048.46 295.4H1058.06V305H1048.46V295.4ZM1062.86 295.4H1072.46V305H1062.86V295.4ZM734.166 354.4H743.766V364H734.166V354.4ZM748.566 354.4H758.166V364H748.566V354.4ZM782.147 383.2V388H762.947V354.4H782.147V359.2H786.947V383.2H782.147ZM772.547 383.2H777.347V359.2H772.547V383.2ZM806.128 368.8H801.328V383.2H806.128V368.8ZM796.528 364H810.928V368.8H815.728V388H796.528V383.2H791.728V368.8H796.528V364ZM834.909 383.2V368.8H830.109V383.2H834.909ZM844.509 392.8H839.709V397.6H830.109V392.8H834.909V388H825.309V383.2H820.509V368.8H825.309V364H844.509V392.8ZM863.691 383.2V368.8H858.891V383.2H863.691ZM873.291 392.8H868.491V397.6H858.891V392.8H863.691V388H854.091V383.2H849.291V368.8H854.091V364H873.291V392.8ZM892.472 373.6V368.8H887.672V373.6H892.472ZM897.272 368.8H902.072V378.4H887.672V383.2H902.072V388H882.872V383.2H878.072V368.8H882.872V364H897.272V368.8ZM911.653 364H926.053V368.8H916.453V388H906.853V368.8H911.653V364ZM928.463 359.2H933.263V354.4H947.663V359.2H952.463V368.8H947.663V373.6H938.062V383.2H952.463V388H928.463V373.6H933.263V368.8H942.863V359.2H938.062V364H928.463V359.2ZM957.244 354.4H966.844V364H957.244V354.4ZM971.644 354.4H981.244V364H971.644V354.4ZM1026.81 354.4H1036.41V364H1026.81V354.4ZM1041.21 354.4H1050.81V364H1041.21V354.4ZM1065.19 368.8H1069.99V354.4H1079.59V388H1069.99V373.6H1065.19V388H1055.59V354.4H1065.19V368.8ZM1084.37 364H1093.97V388H1084.37V364ZM1084.37 354.4H1093.97V359.2H1084.37V354.4ZM1108.36 383.2H1113.16V388H1103.56V383.2H1098.76V354.4H1108.36V383.2ZM1125.14 364H1129.94V368.8H1125.14V383.2H1129.94V388H1120.34V383.2H1115.54V354.4H1125.14V364ZM1134.76 354.4H1144.36V364H1134.76V354.4ZM1149.16 354.4H1158.76V364H1149.16V354.4ZM681.431 413.4H691.031V423H681.431V413.4ZM695.831 413.4H705.431V423H695.831V413.4ZM722.213 413.4H731.812V442.2H727.013V447H712.613V442.2H707.812V437.4H717.413V442.2H722.213V413.4ZM751.003 432.6V427.8H746.203V432.6H751.003ZM755.803 427.8H760.603V437.4H746.203V442.2H760.603V447H741.403V442.2H736.603V427.8H741.403V423H755.803V427.8ZM774.984 423H779.784V427.8H774.984V442.2H779.784V447H770.184V442.2H765.384V413.4H774.984V423ZM799.003 427.8H794.203V442.2H799.003V427.8ZM803.803 423V427.8H808.603V442.2H803.803V447H794.203V456.6H784.603V423H803.803ZM827.784 427.8H822.984V442.2H827.784V427.8ZM818.184 423H832.584V427.8H837.384V447H818.184V442.2H813.384V427.8H818.184V423ZM861.366 427.8H866.166V432.6H856.566V427.8H851.766V442.2H856.566V437.4H866.166V442.2H861.366V447H846.966V442.2H842.166V427.8H846.966V423H861.366V427.8ZM885.347 423H894.947V432.6H890.147V437.4H894.947V447H885.347V437.4H880.547V447H870.947V413.4H880.547V432.6H885.347V423ZM938.128 437.4H933.328V447H923.728V413.4H928.528V418.2H933.328V423H938.128V413.4H947.728V447H942.928V442.2H938.128V437.4ZM966.909 427.8H962.109V442.2H966.909V427.8ZM957.309 423H971.709V427.8H976.509V447H957.309V442.2H952.509V427.8H957.309V423ZM990.891 442.2H995.691V423H1005.29V437.4H1000.49V447H986.091V437.4H981.291V423H990.891V442.2ZM1010.07 423H1019.67V447H1010.07V423ZM1010.07 413.4H1019.67V418.2H1010.07V413.4ZM1038.86 442.2V427.8H1034.06V442.2H1038.86ZM1048.46 451.8H1043.66V456.6H1034.06V451.8H1038.86V447H1029.26V442.2H1024.46V427.8H1029.26V423H1048.46V451.8ZM1067.64 427.8H1062.84V442.2H1067.64V427.8ZM1058.04 423H1072.44V427.8H1077.24V447H1058.04V442.2H1053.24V427.8H1058.04V423ZM1091.62 423H1096.43V427.8H1091.62V442.2H1096.43V447H1086.83V442.2H1082.03V413.4H1091.62V423ZM1101.24 423H1110.84V447H1101.24V423ZM1101.24 413.4H1110.84V418.2H1101.24V413.4ZM1134.83 442.2V447H1120.43V442.2H1115.63V427.8H1120.43V423H1134.83V427.8H1139.63V442.2H1134.83ZM1125.23 442.2H1130.03V427.8H1125.23V442.2ZM1163.62 423V427.8H1168.42V447H1158.82V427.8H1154.02V447H1144.42V423H1163.62ZM1173.2 413.4H1182.8V423H1173.2V413.4ZM1187.6 413.4H1197.2V423H1187.6V413.4ZM1242.76 413.4H1252.36V423H1242.76V413.4ZM1257.16 413.4H1266.76V423H1257.16V413.4ZM1281.14 442.2H1285.94V437.4H1295.54V442.2H1290.74V447H1276.34V442.2H1271.54V418.2H1276.34V413.4H1290.74V418.2H1295.54V423H1285.94V418.2H1281.14V442.2ZM1297.93 423H1307.53V447H1297.93V423ZM1297.93 413.4H1307.53V418.2H1297.93V413.4ZM1331.52 427.8H1336.32V432.6H1326.72V427.8H1321.92V442.2H1326.72V437.4H1336.32V442.2H1331.52V447H1317.12V442.2H1312.32V427.8H1317.12V423H1331.52V427.8ZM1355.5 432.6V427.8H1350.7V432.6H1355.5ZM1360.3 427.8H1365.1V437.4H1350.7V442.2H1365.1V447H1345.9V442.2H1341.1V427.8H1345.9V423H1360.3V427.8ZM1374.68 423H1389.08V427.8H1379.48V447H1369.88V427.8H1374.68V423ZM1410.69 442.2V447H1396.29V442.2H1391.49V427.8H1396.29V423H1410.69V427.8H1415.49V442.2H1410.69ZM1401.09 442.2H1405.89V427.8H1401.09V442.2ZM1439.48 423V427.8H1444.28V447H1434.68V427.8H1429.88V447H1420.28V423H1439.48ZM1463.46 432.6V427.8H1458.66V432.6H1463.46ZM1468.26 427.8H1473.06V437.4H1458.66V442.2H1473.06V447H1453.86V442.2H1449.06V427.8H1453.86V423H1468.26V427.8ZM1477.84 413.4H1487.44V423H1477.84V413.4ZM1492.24 413.4H1501.84V423H1492.24V413.4ZM631.134 472.4H640.734V482H631.134V472.4ZM645.534 472.4H655.134V482H645.534V472.4ZM669.516 486.8H674.316V477.2H669.516V486.8ZM659.916 472.4H679.116V477.2H683.916V486.8H679.116V491.6H683.916V506H674.316V491.6H669.516V506H659.916V472.4ZM703.097 491.6V486.8H698.297V491.6H703.097ZM707.897 486.8H712.697V496.4H698.297V501.2H712.697V506H693.497V501.2H688.697V486.8H693.497V482H707.897V486.8ZM727.078 482H731.878V486.8H727.078V501.2H731.878V506H722.278V501.2H717.478V472.4H727.078V482ZM741.497 482H755.897V486.8H746.297V506H736.697V486.8H741.497V482ZM777.506 501.2V506H763.106V501.2H758.306V486.8H763.106V482H777.506V486.8H782.306V501.2H777.506ZM767.906 501.2H772.706V486.8H767.906V501.2ZM796.688 491.6H801.488V496.4H796.688V506H787.088V477.2H791.888V472.4H806.288V477.2H796.688V491.6ZM808.697 482H818.297V506H808.697V482ZM808.697 472.4H818.297V477.2H808.697V472.4ZM832.688 482H837.488V486.8H832.688V501.2H837.488V506H827.888V501.2H823.088V472.4H832.688V482ZM842.306 472.4H851.906V482H842.306V472.4ZM856.706 472.4H866.306V482H856.706V472.4ZM571.088 531.4H580.688V541H571.088V531.4ZM585.488 531.4H595.088V541H585.488V531.4ZM609.469 545.8H614.269V536.2H609.469V545.8ZM599.869 531.4H619.069V536.2H623.869V545.8H619.069V550.6H623.869V565H614.269V550.6H609.469V565H599.869V531.4ZM647.85 560.2V565H633.45V560.2H628.65V545.8H633.45V541H647.85V545.8H652.65V560.2H647.85ZM638.25 560.2H643.05V545.8H638.25V560.2ZM676.631 560.2V565H662.231V560.2H657.431V545.8H662.231V541H676.631V545.8H681.431V560.2H676.631ZM667.031 560.2H671.831V545.8H667.031V560.2ZM719.813 541V545.8H724.613V565H715.013V545.8H710.213V565H700.613V545.8H695.812V565H686.213V541H719.813ZM729.431 531.4H739.031V541H729.431V531.4ZM743.831 531.4H753.431V541H743.831V531.4ZM523.181 590.4H532.781V600H523.181V590.4ZM537.581 590.4H547.181V600H537.581V590.4ZM561.562 604.8H566.363V590.4H575.963V600H571.163V614.4H575.963V624H566.363V609.6H561.562V624H551.963V590.4H561.562V604.8ZM595.144 604.8H590.344V619.2H595.144V604.8ZM585.544 600H599.944V604.8H604.744V624H585.544V619.2H580.744V604.8H585.544V600ZM611.925 600H626.325V604.8H616.725V609.6H626.325V614.4H631.125V619.2H626.325V624H607.125V619.2H621.525V614.4H611.925V609.6H607.125V604.8H611.925V600ZM647.925 604.8H643.125V619.2H647.925V604.8ZM652.725 600V604.8H657.525V619.2H652.725V624H643.125V633.6H633.525V600H652.725ZM667.106 600H681.506V604.8H671.906V624H662.306V604.8H667.106V600ZM698.316 609.6V604.8H693.516V609.6H698.316ZM703.116 604.8H707.916V614.4H693.516V619.2H707.916V624H688.716V619.2H683.916V604.8H688.716V600H703.116V604.8ZM715.097 600H729.497V604.8H719.897V609.6H729.497V614.4H734.297V619.2H729.497V624H710.297V619.2H724.697V614.4H715.097V609.6H710.297V604.8H715.097V600ZM739.097 600H753.497V604.8H743.897V609.6H753.497V614.4H758.297V619.2H753.497V624H734.297V619.2H748.697V614.4H739.097V609.6H734.297V604.8H739.097V600ZM779.897 619.2V624H765.497V619.2H760.697V604.8H765.497V600H779.897V604.8H784.697V619.2H779.897ZM770.297 619.2H775.097V604.8H770.297V619.2ZM789.478 590.4H799.078V600H789.478V590.4ZM803.878 590.4H813.478V600H803.878V590.4ZM859.041 590.4H868.641V600H859.041V590.4ZM873.441 590.4H883.041V600H873.441V590.4ZM916.622 590.4H921.422V624H911.822V609.6H907.022V614.4H902.222V609.6H897.422V624H887.822V590.4H892.622V595.2H897.422V600H902.222V604.8H907.022V600H911.822V595.2H916.622V590.4ZM945.413 619.2V624H931.013V619.2H926.213V604.8H931.013V600H945.413V604.8H950.213V619.2H945.413ZM935.812 619.2H940.613V604.8H935.812V619.2ZM974.194 604.8H978.994V609.6H969.394V604.8H964.594V619.2H969.394V614.4H978.994V619.2H974.194V624H959.794V619.2H954.994V604.8H959.794V600H974.194V604.8ZM998.175 600H1007.78V609.6H1002.98V614.4H1007.78V624H998.175V614.4H993.375V624H983.775V590.4H993.375V609.6H998.175V600ZM1012.56 600H1022.16V624H1012.56V600ZM1012.56 590.4H1022.16V595.2H1012.56V590.4ZM1036.55 600H1041.35V604.8H1036.55V619.2H1041.35V624H1031.75V619.2H1026.95V590.4H1036.55V600ZM1065.37 619.2V624H1050.97V619.2H1046.17V604.8H1050.97V600H1065.37V604.8H1070.17V619.2H1065.37ZM1055.77 619.2H1060.57V604.8H1055.77V619.2ZM1074.95 590.4H1084.55V600H1074.95V590.4ZM1089.35 590.4H1098.95V600H1089.35V590.4ZM1144.51 590.4H1154.11V600H1144.51V590.4ZM1158.91 590.4H1168.51V600H1158.91V590.4ZM1185.29 590.4H1194.89V619.2H1190.09V624H1175.69V619.2H1170.89V614.4H1180.49V619.2H1185.29V590.4ZM1214.08 590.4H1223.68V619.2H1218.88V624H1204.48V619.2H1199.68V590.4H1209.28V619.2H1214.08V590.4ZM1247.66 600V604.8H1252.46V624H1242.86V604.8H1238.06V624H1228.46V600H1247.66ZM1257.24 600H1266.84V624H1257.24V600ZM1257.24 590.4H1266.84V595.2H1257.24V590.4ZM1281.23 600H1286.03V604.8H1281.23V619.2H1286.03V624H1276.43V619.2H1271.63V590.4H1281.23V600ZM1290.85 590.4H1300.45V600H1290.85V590.4ZM1305.25 590.4H1314.85V600H1305.25V590.4ZM571.088 649.4H580.688V659H571.088V649.4ZM585.488 649.4H595.088V659H585.488V649.4ZM609.469 678.2H623.869V683H599.869V649.4H623.869V654.2H609.469V663.8H619.069V668.6H609.469V678.2ZM645.459 673.4H650.259V683H640.659V673.4H635.859V683H626.259V673.4H631.059V668.6H626.259V659H635.859V668.6H640.659V659H650.259V668.6H645.459V673.4ZM674.241 678.2V683H659.841V678.2H655.041V663.8H659.841V659H674.241V663.8H679.041V678.2H674.241ZM664.641 678.2H669.441V663.8H664.641V678.2ZM703.022 663.8V668.6H693.422V683H683.822V649.4H703.022V654.2H707.822V663.8H703.022ZM693.422 663.8H698.222V654.2H693.422V663.8ZM719.812 678.2H724.613V683H715.013V678.2H710.213V649.4H719.812V678.2ZM741.394 663.8H736.594V678.2H741.394V663.8ZM731.794 659H746.194V663.8H750.994V683H731.794V678.2H726.994V663.8H731.794V659ZM770.175 659H779.775V687.8H774.975V692.6H765.375V687.8H770.175V683H760.575V678.2H755.775V659H765.375V678.2H770.175V659ZM798.956 668.6V663.8H794.156V668.6H798.956ZM803.756 663.8H808.556V673.4H794.156V678.2H808.556V683H789.356V678.2H784.556V663.8H789.356V659H803.756V663.8ZM818.138 659H832.538V663.8H822.938V683H813.338V663.8H818.138V659ZM834.947 649.4H844.547V659H834.947V649.4ZM849.347 649.4H858.947V659H849.347V649.4ZM729.478 708.4H739.078V718H729.478V708.4ZM743.878 708.4H753.478V718H743.878V708.4ZM767.859 737.2H772.659V732.4H782.259V737.2H777.459V742H763.059V737.2H758.259V713.2H763.059V708.4H777.459V713.2H782.259V718H772.659V713.2H767.859V737.2ZM794.25 737.2H799.05V742H789.45V737.2H784.65V708.4H794.25V737.2ZM815.831 727.6V722.8H811.031V727.6H815.831ZM820.631 722.8H825.431V732.4H811.031V737.2H825.431V742H806.231V737.2H801.431V722.8H806.231V718H820.631V722.8ZM844.613 722.8H839.812V737.2H844.613V722.8ZM835.013 718H849.413V722.8H854.213V742H835.013V737.2H830.213V722.8H835.013V718ZM878.194 718V722.8H882.994V742H873.394V722.8H868.594V742H858.994V718H878.194ZM926.175 732.4H921.375V742H911.775V713.2H916.575V708.4H930.975V713.2H935.775V742H926.175V732.4ZM921.375 727.6H926.175V713.2H921.375V727.6ZM945.356 718H959.756V722.8H950.156V742H940.556V722.8H945.356V718ZM981.366 722.8H986.166V727.6H976.566V722.8H971.766V737.2H976.566V732.4H986.166V737.2H981.366V742H966.966V737.2H962.166V722.8H966.966V718H981.366V722.8ZM1010.15 722.8H1014.95V742H1005.35V722.8H1000.55V742H990.947V708.4H1000.55V718H1010.15V722.8ZM1019.73 718H1029.33V742H1019.73V718ZM1019.73 708.4H1029.33V713.2H1019.73V708.4ZM1043.72 718H1048.52V722.8H1043.72V737.2H1048.52V742H1038.92V737.2H1034.12V708.4H1043.72V718ZM1067.74 727.6V722.8H1062.94V727.6H1067.74ZM1072.54 722.8H1077.34V732.4H1062.94V737.2H1077.34V742H1058.14V737.2H1053.34V722.8H1058.14V718H1072.54V722.8ZM1101.32 722.8H1106.12V727.6H1096.52V722.8H1091.72V737.2H1096.52V732.4H1106.12V737.2H1101.32V742H1086.92V737.2H1082.12V722.8H1086.92V718H1101.32V722.8ZM1120.5 718H1125.3V722.8H1120.5V737.2H1125.3V742H1115.7V737.2H1110.9V708.4H1120.5V718ZM1144.52 718H1154.12V742H1134.92V737.2H1130.12V718H1139.72V737.2H1144.52V718ZM1163.7 718H1178.1V722.8H1168.5V742H1158.9V722.8H1163.7V718ZM1194.91 727.6V722.8H1190.11V727.6H1194.91ZM1199.71 722.8H1204.51V732.4H1190.11V737.2H1204.51V742H1185.31V737.2H1180.51V722.8H1185.31V718H1199.71V722.8ZM1209.29 708.4H1218.89V718H1209.29V708.4ZM1223.69 708.4H1233.29V718H1223.69V708.4ZM1278.85 708.4H1288.45V718H1278.85V708.4ZM1293.25 708.4H1302.85V718H1293.25V708.4ZM1317.23 722.8H1326.83V727.6H1317.23V742H1307.63V708.4H1331.63V713.2H1317.23V722.8ZM1346.03 727.6V722.8H1341.23V727.6H1346.03ZM1350.83 722.8H1355.63V732.4H1341.23V737.2H1355.63V742H1336.43V737.2H1331.63V722.8H1336.43V718H1350.83V722.8ZM1374.82 722.8H1370.02V737.2H1374.82V722.8ZM1365.22 718H1379.62V722.8H1384.42V742H1365.22V737.2H1360.42V722.8H1365.22V718ZM1398.8 718H1403.6V722.8H1398.8V737.2H1403.6V742H1394V737.2H1389.2V708.4H1398.8V718ZM1422.82 718H1432.42V742H1413.22V737.2H1408.42V718H1418.02V737.2H1422.82V718ZM1442 718H1456.4V722.8H1446.8V742H1437.2V722.8H1442V718ZM1473.21 727.6V722.8H1468.41V727.6H1473.21ZM1478.01 722.8H1482.81V732.4H1468.41V737.2H1482.81V742H1463.61V737.2H1458.81V722.8H1463.61V718H1478.01V722.8ZM1540.39 708.4H1545.19V742H1535.59V727.6H1530.79V732.4H1525.99V727.6H1521.19V742H1511.59V708.4H1516.39V713.2H1521.19V718H1525.99V722.8H1530.79V718H1535.59V713.2H1540.39V708.4ZM1569.18 737.2V742H1554.78V737.2H1549.98V722.8H1554.78V718H1569.18V722.8H1573.98V737.2H1569.18ZM1559.58 737.2H1564.38V722.8H1559.58V737.2ZM1593.16 722.8H1588.36V737.2H1593.16V722.8ZM1583.56 718H1593.16V708.4H1602.76V742H1583.56V737.2H1578.76V722.8H1583.56V718ZM1621.94 718H1631.54V742H1612.34V737.2H1607.54V718H1617.14V737.2H1621.94V718ZM1645.92 737.2H1650.72V742H1641.12V737.2H1636.32V708.4H1645.92V737.2ZM1667.5 727.6V722.8H1662.7V727.6H1667.5ZM1672.3 722.8H1677.1V732.4H1662.7V737.2H1677.1V742H1657.9V737.2H1653.1V722.8H1657.9V718H1672.3V722.8ZM1684.28 718H1698.68V722.8H1689.08V727.6H1698.68V732.4H1703.48V737.2H1698.68V742H1679.48V737.2H1693.88V732.4H1684.28V727.6H1679.48V722.8H1684.28V718ZM1705.88 708.4H1715.48V718H1705.88V708.4ZM1720.28 708.4H1729.88V718H1720.28V708.4ZM712.697 767.4H722.297V777H712.697V767.4ZM727.097 767.4H736.697V777H727.097V767.4ZM767.878 767.4V772.2H758.278V801H748.678V772.2H739.078V767.4H767.878ZM779.859 796.2H794.259V801H770.259V767.4H794.259V772.2H779.859V781.8H789.459V786.6H779.859V796.2ZM811.05 791.4H806.25V801H796.65V772.2H801.45V767.4H815.85V772.2H820.65V801H811.05V791.4ZM806.25 786.6H811.05V772.2H806.25V786.6ZM825.431 767.4H835.031V777H825.431V767.4ZM839.831 767.4H849.431V777H839.831V767.4ZM894.994 767.4H904.594V777H894.994V767.4ZM909.394 767.4H918.994V777H909.394V767.4ZM952.575 767.4H957.375V801H947.775V786.6H942.975V791.4H938.175V786.6H933.375V801H923.775V767.4H928.575V772.2H933.375V777H938.175V781.8H942.975V777H947.775V772.2H952.575V767.4ZM981.366 791.4V801H966.966V791.4H962.166V767.4H971.766V796.2H976.566V767.4H986.166V791.4H981.366ZM1000.55 767.4V801H990.947V767.4H1000.55ZM1005.34 767.4H1014.94V777H1005.34V767.4ZM1019.74 767.4H1029.34V777H1019.74V767.4ZM1074.9 767.4H1084.5V777H1074.9V767.4ZM1089.3 767.4H1098.9V777H1089.3V767.4ZM1132.48 767.4H1137.28V801H1127.68V786.6H1122.88V791.4H1118.08V786.6H1113.28V801H1103.68V767.4H1108.48V772.2H1113.28V777H1118.08V781.8H1122.88V777H1127.68V772.2H1132.48V767.4ZM1161.27 791.4V801H1146.87V791.4H1142.07V767.4H1151.67V796.2H1156.47V767.4H1166.07V791.4H1161.27ZM1190.05 791.4V801H1175.65V791.4H1170.85V767.4H1180.45V796.2H1185.25V767.4H1194.85V791.4H1190.05ZM1228.43 767.4H1233.23V801H1223.63V786.6H1218.83V791.4H1214.03V786.6H1209.23V801H1199.63V767.4H1204.43V772.2H1209.23V777H1214.03V781.8H1218.83V777H1223.63V772.2H1228.43V767.4ZM1238.03 767.4H1247.62V777H1238.03V767.4ZM1252.43 767.4H1262.03V777H1252.43V767.4ZM1307.59 767.4H1317.19V777H1307.59V767.4ZM1321.99 767.4H1331.59V777H1321.99V767.4ZM1365.17 767.4H1369.97V801H1360.37V786.6H1355.57V791.4H1350.77V786.6H1345.97V801H1336.37V767.4H1341.17V772.2H1345.97V777H1350.77V781.8H1355.57V777H1360.37V772.2H1365.17V767.4ZM1393.96 791.4V801H1379.56V791.4H1374.76V767.4H1384.36V796.2H1389.16V767.4H1398.76V791.4H1393.96ZM1422.74 781.8V786.6H1413.14V801H1403.54V767.4H1422.74V772.2H1427.54V781.8H1422.74ZM1413.14 781.8H1417.94V772.2H1413.14V781.8ZM1429.93 767.4H1439.53V777H1429.93V767.4ZM1444.33 767.4H1453.93V777H1444.33V767.4ZM858.994 826.4H868.594V836H858.994V826.4ZM873.394 826.4H882.994V836H873.394V826.4ZM916.575 826.4H921.375V860H911.775V845.6H906.975V850.4H902.175V845.6H897.375V860H887.775V826.4H892.575V831.2H897.375V836H902.175V840.8H906.975V836H911.775V831.2H916.575V826.4ZM940.566 845.6V840.8H935.766V845.6H940.566ZM945.366 840.8H950.166V850.4H935.766V855.2H950.166V860H930.966V855.2H926.166V840.8H930.966V836H945.366V840.8ZM988.547 836V840.8H993.347V860H983.747V840.8H978.947V860H969.347V840.8H964.547V860H954.947V836H988.547ZM1012.57 845.6V840.8H1007.77V845.6H1012.57ZM1017.37 840.8H1022.17V850.4H1007.77V855.2H1022.17V860H1002.97V855.2H998.166V840.8H1002.97V836H1017.37V840.8ZM1046.15 836V840.8H1050.95V860H1041.35V840.8H1036.55V860H1026.95V836H1046.15ZM1065.33 836H1070.13V840.8H1065.33V855.2H1070.13V860H1060.53V855.2H1055.73V826.4H1065.33V836ZM1094.15 855.2V860H1079.75V855.2H1074.95V840.8H1079.75V836H1094.15V840.8H1098.95V855.2H1094.15ZM1084.55 855.2H1089.35V840.8H1084.55V855.2ZM1103.73 826.4H1113.33V836H1103.73V826.4ZM1118.13 826.4H1127.73V836H1118.13V826.4ZM1173.29 826.4H1182.89V836H1173.29V826.4ZM1187.69 826.4H1197.29V836H1187.69V826.4ZM1216.47 855.2V831.2H1211.67V855.2H1216.47ZM1221.27 831.2H1226.07V855.2H1221.27V860H1206.87V855.2H1202.07V831.2H1206.87V826.4H1221.27V831.2ZM1245.25 840.8H1240.45V855.2H1245.25V840.8ZM1240.45 836H1250.05V840.8H1254.85V855.2H1250.05V860H1235.65V855.2H1230.85V826.4H1240.45V836ZM1262.03 836H1276.43V840.8H1266.83V845.6H1276.43V850.4H1281.23V855.2H1276.43V860H1257.23V855.2H1271.63V850.4H1262.03V845.6H1257.23V840.8H1262.03V836ZM1298.03 845.6V840.8H1293.23V845.6H1298.03ZM1302.83 840.8H1307.63V850.4H1293.23V855.2H1307.63V860H1288.43V855.2H1283.63V840.8H1288.43V836H1302.83V840.8ZM1317.22 836H1331.62V840.8H1322.02V860H1312.42V840.8H1317.22V836ZM1343.62 855.2H1348.43V836H1358.03V850.4H1353.23V860H1338.83V850.4H1334.03V836H1343.62V855.2ZM1377.21 845.6V840.8H1372.41V845.6H1377.21ZM1382.01 840.8H1386.81V850.4H1372.41V855.2H1386.81V860H1367.61V855.2H1362.81V840.8H1367.61V836H1382.01V840.8ZM1396.39 836H1410.79V840.8H1401.19V860H1391.59V840.8H1396.39V836ZM1413.2 826.4H1422.8V836H1413.2V826.4ZM1427.6 826.4H1437.2V836H1427.6V826.4ZM1482.76 826.4H1492.36V836H1482.76V826.4ZM1497.16 826.4H1506.76V836H1497.16V826.4ZM1521.14 855.2H1525.94V850.4H1535.54V855.2H1530.74V860H1516.34V855.2H1511.54V831.2H1516.34V826.4H1530.74V831.2H1535.54V836H1525.94V831.2H1521.14V855.2ZM1557.13 855.2V860H1542.73V855.2H1537.93V840.8H1542.73V836H1557.13V840.8H1561.93V855.2H1557.13ZM1547.53 855.2H1552.33V840.8H1547.53V855.2ZM1600.31 836V840.8H1605.11V860H1595.51V840.8H1590.71V860H1581.11V840.8H1576.31V860H1566.71V836H1600.31ZM1643.53 836V840.8H1648.33V860H1638.73V840.8H1633.93V860H1624.33V840.8H1619.53V860H1609.93V836H1643.53ZM1667.55 840.8H1662.75V855.2H1667.55V840.8ZM1657.95 836H1672.35V840.8H1677.15V860H1657.95V855.2H1653.15V840.8H1657.95V836ZM1701.13 836V840.8H1705.93V860H1696.33V840.8H1691.53V860H1681.93V836H1701.13ZM1725.11 840.8H1720.31V855.2H1725.11V840.8ZM1715.51 836H1725.11V826.4H1734.71V860H1715.51V855.2H1710.71V840.8H1715.51V836ZM1739.49 826.4H1749.09V836H1739.49V826.4ZM1753.89 826.4H1763.49V836H1753.89V826.4ZM1809.06 826.4H1818.66V836H1809.06V826.4ZM1823.46 826.4H1833.06V836H1823.46V826.4ZM1857.04 831.2H1861.84V836H1852.24V831.2H1847.44V840.8H1857.04V845.6H1861.84V855.2H1857.04V860H1842.64V855.2H1837.84V850.4H1847.44V855.2H1852.24V845.6H1842.64V840.8H1837.84V831.2H1842.64V826.4H1857.04V831.2ZM1876.22 836H1881.02V840.8H1876.22V855.2H1881.02V860H1871.42V855.2H1866.62V826.4H1876.22V836ZM1900.24 840.8H1895.44V855.2H1900.24V840.8ZM1890.64 836H1905.04V840.8H1909.84V860H1890.64V855.2H1885.84V840.8H1890.64V836ZM1924.22 836H1929.02V840.8H1924.22V855.2H1929.02V860H1919.42V855.2H1914.62V826.4H1924.22V836ZM1948.24 845.6V840.8H1943.44V845.6H1948.24ZM1953.04 840.8H1957.84V850.4H1943.44V855.2H1957.84V860H1938.64V855.2H1933.84V840.8H1938.64V836H1953.04V840.8ZM1962.62 826.4H1972.22V836H1962.62V826.4ZM1977.02 826.4H1986.62V836H1977.02V826.4ZM2032.18 826.4H2041.78V836H2032.18V826.4ZM2046.58 826.4H2056.18V836H2046.58V826.4ZM2080.16 831.2H2084.96V836H2075.36V831.2H2070.56V840.8H2080.16V845.6H2084.96V855.2H2080.16V860H2065.76V855.2H2060.96V850.4H2070.56V855.2H2075.36V845.6H2065.76V840.8H2060.96V831.2H2065.76V826.4H2080.16V831.2ZM2099.34 836H2104.14V840.8H2099.34V855.2H2104.14V860H2094.54V855.2H2089.74V826.4H2099.34V836ZM2113.76 836H2128.16V840.8H2118.56V860H2108.96V840.8H2113.76V836ZM2144.97 840.8H2140.17V855.2H2144.97V840.8ZM2135.37 836H2149.77V840.8H2154.57V860H2135.37V855.2H2130.57V840.8H2135.37V836ZM2168.95 836H2173.75V840.8H2168.95V855.2H2173.75V860H2164.15V855.2H2159.35V826.4H2168.95V836ZM2192.97 845.6V840.8H2188.17V845.6H2192.97ZM2197.77 840.8H2202.57V850.4H2188.17V855.2H2202.57V860H2183.37V855.2H2178.57V840.8H2183.37V836H2197.77V840.8ZM2221.75 855.2V840.8H2216.95V855.2H2221.75ZM2231.35 864.8H2226.55V869.6H2216.95V864.8H2221.75V860H2212.15V855.2H2207.35V840.8H2212.15V836H2231.35V864.8ZM2250.53 836H2260.13V864.8H2255.33V869.6H2245.73V864.8H2250.53V860H2240.93V855.2H2236.13V836H2245.73V855.2H2250.53V836ZM2264.92 826.4H2274.52V836H2264.92V826.4ZM2279.32 826.4H2288.92V836H2279.32V826.4ZM842.306 885.4H851.906V895H842.306V885.4ZM856.706 885.4H866.306V895H856.706V885.4ZM885.488 909.4H880.688V919H871.088V890.2H875.888V885.4H890.288V890.2H895.088V919H885.488V909.4ZM880.688 904.6H885.488V890.2H880.688V904.6ZM914.269 899.8H909.469V914.2H914.269V899.8ZM904.669 895H914.269V885.4H923.869V919H904.669V914.2H899.869V899.8H904.669V895ZM943.05 899.8H938.25V914.2H943.05V899.8ZM933.45 895H947.85V899.8H952.65V919H933.45V914.2H928.65V899.8H933.45V895ZM971.831 899.8H967.031V914.2H971.831V899.8ZM976.631 895V899.8H981.431V914.2H976.631V919H967.031V928.6H957.431V895H976.631ZM995.812 895H1000.61V899.8H995.812V914.2H1000.61V919H991.013V914.2H986.213V885.4H995.812V895ZM1019.83 904.6V899.8H1015.03V904.6H1019.83ZM1024.63 899.8H1029.43V909.4H1015.03V914.2H1029.43V919H1010.23V914.2H1005.43V899.8H1010.23V895H1024.63V899.8ZM1039.01 895H1053.41V899.8H1043.81V919H1034.21V899.8H1039.01V895ZM1055.82 885.4H1065.42V895H1055.82V885.4ZM1070.22 885.4H1079.82V895H1070.22V885.4ZM1125.38 885.4H1134.98V895H1125.38V885.4ZM1139.78 885.4H1149.38V895H1139.78V885.4ZM1173.37 899.8V904.6H1163.77V919H1154.17V885.4H1173.37V890.2H1178.17V899.8H1173.37ZM1163.77 899.8H1168.57V890.2H1163.77V899.8ZM1185.36 895H1199.76V899.8H1190.16V919H1180.56V899.8H1185.36V895ZM1221.37 914.2V919H1206.97V914.2H1202.17V899.8H1206.97V895H1221.37V899.8H1226.17V914.2H1221.37ZM1211.77 914.2H1216.57V899.8H1211.77V914.2ZM1250.15 909.4H1254.95V919H1245.35V909.4H1240.55V919H1230.95V909.4H1235.75V904.6H1230.95V895H1240.55V904.6H1245.35V895H1254.95V904.6H1250.15V909.4ZM1274.13 895H1283.73V923.8H1278.93V928.6H1269.33V923.8H1274.13V919H1264.53V914.2H1259.73V895H1269.33V914.2H1274.13V895ZM1288.51 885.4H1298.11V895H1288.51V885.4ZM1302.91 885.4H1312.51V895H1302.91V885.4ZM1358.07 885.4H1367.67V895H1358.07V885.4ZM1372.47 885.4H1382.07V895H1372.47V885.4ZM1396.45 899.8H1401.25V890.2H1396.45V899.8ZM1406.05 914.2V919H1386.85V885.4H1406.05V890.2H1410.85V899.8H1406.05V904.6H1410.85V914.2H1406.05ZM1396.45 914.2H1401.25V904.6H1396.45V914.2ZM1420.43 895H1434.83V899.8H1425.23V919H1415.63V899.8H1420.43V895ZM1437.24 895H1446.84V919H1437.24V895ZM1437.24 885.4H1446.84V890.2H1437.24V885.4ZM1466.03 899.8H1461.23V914.2H1466.03V899.8ZM1456.43 895H1466.03V885.4H1475.63V919H1456.43V914.2H1451.63V899.8H1456.43V895ZM1494.82 914.2V899.8H1490.02V914.2H1494.82ZM1504.42 923.8H1499.62V928.6H1490.02V923.8H1494.82V919H1485.22V914.2H1480.42V899.8H1485.22V895H1504.42V923.8ZM1523.6 904.6V899.8H1518.8V904.6H1523.6ZM1528.4 899.8H1533.2V909.4H1518.8V914.2H1533.2V919H1514V914.2H1509.2V899.8H1514V895H1528.4V899.8ZM1537.98 885.4H1547.58V895H1537.98V885.4ZM1552.38 885.4H1561.98V895H1552.38V885.4ZM1607.54 885.4H1617.14V895H1607.54V885.4ZM1621.94 885.4H1631.54V895H1621.94V885.4ZM1655.52 914.2V919H1636.32V885.4H1655.52V890.2H1660.32V914.2H1655.52ZM1645.92 914.2H1650.72V890.2H1645.92V914.2ZM1679.5 904.6V899.8H1674.7V904.6H1679.5ZM1684.3 899.8H1689.1V909.4H1674.7V914.2H1689.1V919H1669.9V914.2H1665.1V899.8H1669.9V895H1684.3V899.8ZM1713.08 899.8H1717.88V904.6H1708.28V899.8H1703.48V914.2H1708.28V909.4H1717.88V914.2H1713.08V919H1698.68V914.2H1693.88V899.8H1698.68V895H1713.08V899.8ZM1741.87 914.2V919H1727.47V914.2H1722.67V899.8H1727.47V895H1741.87V899.8H1746.67V914.2H1741.87ZM1732.27 914.2H1737.07V899.8H1732.27V914.2ZM1756.25 895H1770.65V899.8H1761.05V919H1751.45V899.8H1756.25V895ZM1787.46 899.8H1782.66V914.2H1787.46V899.8ZM1777.86 895H1792.26V899.8H1797.06V919H1777.86V914.2H1773.06V899.8H1777.86V895ZM1811.44 895H1816.24V899.8H1811.44V914.2H1816.24V919H1806.64V914.2H1801.84V885.4H1811.44V895ZM1840.26 914.2V919H1825.86V914.2H1821.06V899.8H1825.86V895H1840.26V899.8H1845.06V914.2H1840.26ZM1830.66 914.2H1835.46V899.8H1830.66V914.2ZM1854.64 895H1869.04V899.8H1859.44V919H1849.84V899.8H1854.64V895ZM1871.45 885.4H1881.05V895H1871.45V885.4ZM1885.85 885.4H1895.45V895H1885.85V885.4ZM1941.01 885.4H1950.61V895H1941.01V885.4ZM1955.41 885.4H1965.01V895H1955.41V885.4ZM1979.39 899.8H1988.99V904.6H1979.39V919H1969.79V885.4H1993.79V890.2H1979.39V899.8ZM2008.19 899.8H2003.39V914.2H2008.19V899.8ZM1998.59 895H2012.99V899.8H2017.79V919H1998.59V914.2H1993.79V899.8H1998.59V895ZM2041.77 899.8H2046.57V904.6H2036.97V899.8H2032.17V914.2H2036.97V909.4H2046.57V914.2H2041.77V919H2027.37V914.2H2022.57V899.8H2027.37V895H2041.77V899.8ZM2065.75 899.8H2060.95V914.2H2065.75V899.8ZM2056.15 895H2070.55V899.8H2075.35V919H2056.15V914.2H2051.35V899.8H2056.15V895ZM2094.53 899.8H2089.73V914.2H2094.53V899.8ZM2084.93 895H2094.53V885.4H2104.13V919H2084.93V914.2H2080.13V899.8H2084.93V895ZM2123.32 904.6V899.8H2118.52V904.6H2123.32ZM2128.12 899.8H2132.92V909.4H2118.52V914.2H2132.92V919H2113.72V914.2H2108.92V899.8H2113.72V895H2128.12V899.8ZM2137.7 885.4H2147.3V895H2137.7V885.4ZM2152.1 885.4H2161.7V895H2152.1V885.4ZM849.431 944.4H859.031V954H849.431V944.4ZM863.831 944.4H873.431V954H863.831V944.4ZM892.613 968.4H887.812V978H878.213V949.2H883.013V944.4H897.413V949.2H902.213V978H892.613V968.4ZM887.812 963.6H892.613V949.2H887.812V963.6ZM921.394 958.8H916.594V973.2H921.394V958.8ZM916.594 954H926.194V958.8H930.994V973.2H926.194V978H911.794V973.2H906.994V944.4H916.594V954ZM938.175 954H952.575V958.8H942.975V963.6H952.575V968.4H957.375V973.2H952.575V978H933.375V973.2H947.775V968.4H938.175V963.6H933.375V958.8H938.175V954ZM969.375 954H974.175V958.8H969.375V973.2H974.175V978H964.575V973.2H959.775V944.4H969.375V954ZM983.794 954H998.194V958.8H988.594V978H978.994V958.8H983.794V954ZM1015 958.8H1010.2V973.2H1015V958.8ZM1005.4 954H1019.8V958.8H1024.6V978H1005.4V973.2H1000.6V958.8H1005.4V954ZM1048.58 958.8H1053.38V963.6H1043.78V958.8H1038.98V973.2H1043.78V968.4H1053.38V973.2H1048.58V978H1034.18V973.2H1029.38V958.8H1034.18V954H1048.58V958.8ZM1067.77 954H1072.57V958.8H1067.77V973.2H1072.57V978H1062.97V973.2H1058.17V944.4H1067.77V954ZM1110.98 963.6H1115.78V968.4H1110.98V978H1101.38V949.2H1106.18V944.4H1120.58V949.2H1110.98V963.6ZM1135 958.8H1130.2V973.2H1135V958.8ZM1125.4 954H1139.8V958.8H1144.6V978H1125.4V973.2H1120.6V958.8H1125.4V954ZM1168.58 958.8H1173.38V963.6H1163.78V958.8H1158.98V973.2H1163.78V968.4H1173.38V973.2H1168.58V978H1154.18V973.2H1149.38V958.8H1154.18V954H1168.58V958.8ZM1187.77 954H1192.57V958.8H1187.77V973.2H1192.57V978H1182.97V973.2H1178.17V944.4H1187.77V954ZM1216.58 973.2V978H1202.18V973.2H1197.38V958.8H1202.18V954H1216.58V958.8H1221.38V973.2H1216.58ZM1206.98 973.2H1211.78V958.8H1206.98V973.2ZM1230.97 954H1245.37V958.8H1235.77V978H1226.17V958.8H1230.97V954ZM1262.18 954H1271.78V982.8H1266.98V987.6H1257.38V982.8H1262.18V978H1252.58V973.2H1247.78V954H1257.38V973.2H1262.18V954ZM1276.56 944.4H1286.16V954H1276.56V944.4ZM1290.96 944.4H1300.56V954H1290.96V944.4ZM1346.12 944.4H1355.72V954H1346.12V944.4ZM1360.52 944.4H1370.12V954H1360.52V944.4ZM1384.5 958.8H1389.3V949.2H1384.5V958.8ZM1394.1 973.2V978H1374.9V944.4H1394.1V949.2H1398.9V958.8H1394.1V963.6H1398.9V973.2H1394.1ZM1384.5 973.2H1389.3V963.6H1384.5V973.2ZM1418.08 954H1427.68V978H1408.48V973.2H1403.68V954H1413.28V973.2H1418.08V954ZM1432.46 954H1442.06V978H1432.46V954ZM1432.46 944.4H1442.06V949.2H1432.46V944.4ZM1456.45 973.2H1461.25V978H1451.65V973.2H1446.85V944.4H1456.45V973.2ZM1478.03 958.8H1473.23V973.2H1478.03V958.8ZM1468.43 954H1478.03V944.4H1487.63V978H1468.43V973.2H1463.63V958.8H1468.43V954ZM1506.82 963.6V958.8H1502.02V963.6H1506.82ZM1511.62 958.8H1516.42V968.4H1502.02V973.2H1516.42V978H1497.22V973.2H1492.42V958.8H1497.22V954H1511.62V958.8ZM1526 954H1540.4V958.8H1530.8V978H1521.2V958.8H1526V954ZM1542.81 944.4H1552.41V954H1542.81V944.4ZM1557.21 944.4H1566.81V954H1557.21V944.4ZM1612.37 944.4H1621.97V954H1612.37V944.4ZM1626.77 944.4H1636.37V954H1626.77V944.4ZM1650.75 958.8H1660.35V963.6H1650.75V978H1641.15V944.4H1665.15V949.2H1650.75V958.8ZM1679.55 958.8H1674.75V973.2H1679.55V958.8ZM1669.95 954H1684.35V958.8H1689.15V978H1669.95V973.2H1665.15V958.8H1669.95V954ZM1713.13 958.8H1717.93V963.6H1708.33V958.8H1703.53V973.2H1708.33V968.4H1717.93V973.2H1713.13V978H1698.73V973.2H1693.93V958.8H1698.73V954H1713.13V958.8ZM1732.31 954H1737.11V958.8H1732.31V973.2H1737.11V978H1727.51V973.2H1722.71V944.4H1732.31V954ZM1761.13 973.2V978H1746.73V973.2H1741.93V958.8H1746.73V954H1761.13V958.8H1765.93V973.2H1761.13ZM1751.53 973.2H1756.33V958.8H1751.53V973.2ZM1775.51 954H1789.91V958.8H1780.31V978H1770.71V958.8H1775.51V954ZM1806.72 954H1816.32V982.8H1811.52V987.6H1801.92V982.8H1806.72V978H1797.12V973.2H1792.32V954H1801.92V973.2H1806.72V954ZM1878.7 954V958.8H1883.5V978H1873.9V958.8H1869.1V978H1859.5V958.8H1854.7V978H1845.1V954H1878.7ZM1902.72 963.6V958.8H1897.92V963.6H1902.72ZM1907.52 958.8H1912.32V968.4H1897.92V973.2H1912.32V978H1893.12V973.2H1888.32V958.8H1893.12V954H1907.52V958.8ZM1926.7 954H1931.5V958.8H1926.7V973.2H1931.5V978H1921.9V973.2H1917.1V944.4H1926.7V954ZM1955.52 958.8H1960.32V978H1950.72V958.8H1945.92V978H1936.32V944.4H1945.92V954H1955.52V958.8ZM1984.3 973.2V978H1969.9V973.2H1965.1V958.8H1969.9V954H1984.3V958.8H1989.1V973.2H1984.3ZM1974.7 973.2H1979.5V958.8H1974.7V973.2ZM2008.28 958.8H2003.48V973.2H2008.28V958.8ZM1998.68 954H2008.28V944.4H2017.88V978H1998.68V973.2H1993.88V958.8H1998.68V954ZM2022.67 944.4H2032.27V954H2022.67V944.4ZM2037.07 944.4H2046.67V954H2037.07V944.4ZM2092.23 944.4H2101.83V954H2092.23V944.4ZM2106.63 944.4H2116.23V954H2106.63V944.4ZM2140.21 949.2H2145.01V954H2135.41V949.2H2130.61V958.8H2140.21V963.6H2145.01V973.2H2140.21V978H2125.81V973.2H2121.01V968.4H2130.61V973.2H2135.41V963.6H2125.81V958.8H2121.01V949.2H2125.81V944.4H2140.21V949.2ZM2149.79 954H2159.39V978H2149.79V954ZM2149.79 944.4H2159.39V949.2H2149.79V944.4ZM2183.38 954V958.8H2188.18V978H2178.58V958.8H2173.78V978H2164.18V954H2183.38ZM2207.36 973.2V958.8H2202.56V973.2H2207.36ZM2216.96 982.8H2212.16V987.6H2202.56V982.8H2207.36V978H2197.76V973.2H2192.96V958.8H2197.76V954H2216.96V982.8ZM2231.34 973.2H2236.14V978H2226.54V973.2H2221.74V944.4H2231.34V973.2ZM2252.93 963.6V958.8H2248.12V963.6H2252.93ZM2257.73 958.8H2262.53V968.4H2248.12V973.2H2262.53V978H2243.33V973.2H2238.53V958.8H2243.33V954H2257.73V958.8ZM2276.91 954H2281.71V958.8H2276.91V973.2H2281.71V978H2272.11V973.2H2267.31V944.4H2276.91V954ZM2305.73 973.2V978H2291.33V973.2H2286.53V958.8H2291.33V954H2305.73V958.8H2310.53V973.2H2305.73ZM2296.12 973.2H2300.93V958.8H2296.12V973.2ZM2334.51 954V958.8H2339.31V978H2329.71V958.8H2324.91V978H2315.31V954H2334.51ZM2344.09 944.4H2353.69V954H2344.09V944.4ZM2358.49 944.4H2368.09V954H2358.49V944.4Z" fill="#52A362"/>
</svg>
